G04 #@! TF.GenerationSoftware,KiCad,Pcbnew,(6.0.0)*
G04 #@! TF.CreationDate,2022-04-30T09:15:09+02:00*
G04 #@! TF.ProjectId,parasite,70617261-7369-4746-952e-6b696361645f,1.2.0*
G04 #@! TF.SameCoordinates,Original*
G04 #@! TF.FileFunction,Copper,L1,Top*
G04 #@! TF.FilePolarity,Positive*
%FSLAX46Y46*%
G04 Gerber Fmt 4.6, Leading zero omitted, Abs format (unit mm)*
G04 Created by KiCad (PCBNEW (6.0.0)) date 2022-04-30 09:15:09*
%MOMM*%
%LPD*%
G01*
G04 APERTURE LIST*
G04 Aperture macros list*
%AMRoundRect*
0 Rectangle with rounded corners*
0 $1 Rounding radius*
0 $2 $3 $4 $5 $6 $7 $8 $9 X,Y pos of 4 corners*
0 Add a 4 corners polygon primitive as box body*
4,1,4,$2,$3,$4,$5,$6,$7,$8,$9,$2,$3,0*
0 Add four circle primitives for the rounded corners*
1,1,$1+$1,$2,$3*
1,1,$1+$1,$4,$5*
1,1,$1+$1,$6,$7*
1,1,$1+$1,$8,$9*
0 Add four rect primitives between the rounded corners*
20,1,$1+$1,$2,$3,$4,$5,0*
20,1,$1+$1,$4,$5,$6,$7,0*
20,1,$1+$1,$6,$7,$8,$9,0*
20,1,$1+$1,$8,$9,$2,$3,0*%
G04 Aperture macros list end*
G04 #@! TA.AperFunction,SMDPad,CuDef*
%ADD10RoundRect,0.237500X0.237500X-0.300000X0.237500X0.300000X-0.237500X0.300000X-0.237500X-0.300000X0*%
G04 #@! TD*
G04 #@! TA.AperFunction,SMDPad,CuDef*
%ADD11RoundRect,0.237500X0.300000X0.237500X-0.300000X0.237500X-0.300000X-0.237500X0.300000X-0.237500X0*%
G04 #@! TD*
G04 #@! TA.AperFunction,SMDPad,CuDef*
%ADD12RoundRect,0.237500X-0.237500X0.300000X-0.237500X-0.300000X0.237500X-0.300000X0.237500X0.300000X0*%
G04 #@! TD*
G04 #@! TA.AperFunction,SMDPad,CuDef*
%ADD13RoundRect,0.237500X-0.300000X-0.237500X0.300000X-0.237500X0.300000X0.237500X-0.300000X0.237500X0*%
G04 #@! TD*
G04 #@! TA.AperFunction,SMDPad,CuDef*
%ADD14RoundRect,0.237500X0.237500X-0.250000X0.237500X0.250000X-0.237500X0.250000X-0.237500X-0.250000X0*%
G04 #@! TD*
G04 #@! TA.AperFunction,SMDPad,CuDef*
%ADD15RoundRect,0.237500X0.250000X0.237500X-0.250000X0.237500X-0.250000X-0.237500X0.250000X-0.237500X0*%
G04 #@! TD*
G04 #@! TA.AperFunction,SMDPad,CuDef*
%ADD16R,0.800000X0.900000*%
G04 #@! TD*
G04 #@! TA.AperFunction,SMDPad,CuDef*
%ADD17RoundRect,0.237500X-0.250000X-0.237500X0.250000X-0.237500X0.250000X0.237500X-0.250000X0.237500X0*%
G04 #@! TD*
G04 #@! TA.AperFunction,SMDPad,CuDef*
%ADD18C,1.000000*%
G04 #@! TD*
G04 #@! TA.AperFunction,SMDPad,CuDef*
%ADD19RoundRect,0.237500X-0.237500X0.250000X-0.237500X-0.250000X0.237500X-0.250000X0.237500X0.250000X0*%
G04 #@! TD*
G04 #@! TA.AperFunction,SMDPad,CuDef*
%ADD20R,1.000000X1.800000*%
G04 #@! TD*
G04 #@! TA.AperFunction,SMDPad,CuDef*
%ADD21RoundRect,0.218750X0.256250X-0.218750X0.256250X0.218750X-0.256250X0.218750X-0.256250X-0.218750X0*%
G04 #@! TD*
G04 #@! TA.AperFunction,SMDPad,CuDef*
%ADD22RoundRect,0.087500X0.187500X0.087500X-0.187500X0.087500X-0.187500X-0.087500X0.187500X-0.087500X0*%
G04 #@! TD*
G04 #@! TA.AperFunction,SMDPad,CuDef*
%ADD23RoundRect,0.175000X0.175000X0.625000X-0.175000X0.625000X-0.175000X-0.625000X0.175000X-0.625000X0*%
G04 #@! TD*
G04 #@! TA.AperFunction,SMDPad,CuDef*
%ADD24R,1.300000X1.700000*%
G04 #@! TD*
G04 #@! TA.AperFunction,SMDPad,CuDef*
%ADD25R,1.200000X0.650000*%
G04 #@! TD*
G04 #@! TA.AperFunction,SMDPad,CuDef*
%ADD26R,0.650000X1.200000*%
G04 #@! TD*
G04 #@! TA.AperFunction,SMDPad,CuDef*
%ADD27R,0.800000X0.800000*%
G04 #@! TD*
G04 #@! TA.AperFunction,ViaPad*
%ADD28C,0.800000*%
G04 #@! TD*
G04 #@! TA.AperFunction,Conductor*
%ADD29C,0.250000*%
G04 #@! TD*
G04 #@! TA.AperFunction,Conductor*
%ADD30C,10.000000*%
G04 #@! TD*
G04 #@! TA.AperFunction,Conductor*
%ADD31C,0.500000*%
G04 #@! TD*
G04 APERTURE END LIST*
D10*
X63290000Y-55742500D03*
X63290000Y-54017500D03*
D11*
X61222500Y-57280000D03*
X59497500Y-57280000D03*
D10*
X65760000Y-53592500D03*
X65760000Y-51867500D03*
D12*
X62550000Y-48227500D03*
X62550000Y-49952500D03*
D13*
X74887500Y-56630000D03*
X76612500Y-56630000D03*
D10*
X67940000Y-52102500D03*
X67940000Y-50377500D03*
D14*
X70060000Y-51912500D03*
X70060000Y-50087500D03*
D15*
X71832500Y-56820000D03*
X70007500Y-56820000D03*
X61222500Y-60410000D03*
X59397500Y-60410000D03*
D16*
X63150000Y-60900000D03*
X65050000Y-60900000D03*
X64100000Y-58900000D03*
D17*
X65867500Y-56830000D03*
X67692500Y-56830000D03*
X59407500Y-54180000D03*
X61232500Y-54180000D03*
D18*
X76640000Y-36880000D03*
X76640000Y-39420000D03*
X76640000Y-44500000D03*
X76640000Y-41960000D03*
X76640000Y-34340000D03*
D19*
X59990000Y-45957500D03*
X59990000Y-47782500D03*
D16*
X76560000Y-59640000D03*
X74660000Y-59640000D03*
X75610000Y-61640000D03*
D20*
X65000000Y-48000000D03*
X67500000Y-48000000D03*
D21*
X60450000Y-51767500D03*
X60450000Y-50192500D03*
D15*
X71972500Y-47860000D03*
X70147500Y-47860000D03*
D17*
X74707500Y-54090000D03*
X76532500Y-54090000D03*
D16*
X67260000Y-61690000D03*
X69160000Y-61690000D03*
X68210000Y-59690000D03*
D22*
X73725000Y-51100000D03*
X73725000Y-50100000D03*
X71875000Y-50100000D03*
X71875000Y-51100000D03*
D23*
X72800000Y-50600000D03*
D24*
X72510000Y-54460000D03*
X69010000Y-54460000D03*
D18*
X76640000Y-31800000D03*
D25*
X60781000Y-31170000D03*
X60781000Y-32440000D03*
X60781000Y-33710000D03*
X60781000Y-34980000D03*
X60781000Y-36250000D03*
X60781000Y-37520000D03*
X60781000Y-38790000D03*
X60781000Y-40060000D03*
X60781000Y-41330000D03*
X60781000Y-42600000D03*
D26*
X62530000Y-44919000D03*
X63800000Y-44919000D03*
X65070000Y-44919000D03*
X66340000Y-44919000D03*
X67610000Y-44919000D03*
X68880000Y-44919000D03*
X70150000Y-44919000D03*
X71420000Y-44919000D03*
D25*
X73219000Y-42600000D03*
X73219000Y-41330000D03*
X73219000Y-40060000D03*
X73219000Y-38790000D03*
X73219000Y-37520000D03*
X73219000Y-36250000D03*
X73219000Y-34980000D03*
X73219000Y-33710000D03*
X73219000Y-32440000D03*
X73219000Y-31170000D03*
D18*
X59260000Y-28540000D03*
D14*
X58250000Y-32342500D03*
X58250000Y-30517500D03*
D27*
X57930000Y-35507500D03*
X57930000Y-34007500D03*
D28*
X63500000Y-38200000D03*
X68730000Y-46710000D03*
X66200000Y-48090000D03*
X60060000Y-63950000D03*
X69370000Y-59430000D03*
X65520000Y-62290000D03*
X74550000Y-33680000D03*
X69900000Y-37400000D03*
X69900000Y-38400000D03*
X69450000Y-32900000D03*
X64700000Y-38200000D03*
X62960000Y-52060000D03*
X72150000Y-52570000D03*
X63600000Y-41600000D03*
X62790000Y-31530000D03*
X61360000Y-44960000D03*
X68890000Y-48890000D03*
X64810000Y-55130000D03*
X59200000Y-43100000D03*
X67100000Y-38200000D03*
X63600000Y-42700000D03*
X59420000Y-31400000D03*
X65260000Y-49680000D03*
X65800000Y-38200000D03*
X59200000Y-42000000D03*
X67100000Y-67700000D03*
X68550000Y-66250000D03*
X67800000Y-67000000D03*
X63800000Y-64300000D03*
X75100000Y-31800000D03*
X63000000Y-33800000D03*
X62100000Y-35600000D03*
X60200000Y-44750000D03*
X59570000Y-33660000D03*
X58725500Y-50170000D03*
X71800000Y-34700000D03*
X76100000Y-38200000D03*
X75900000Y-40300000D03*
X69500000Y-34460000D03*
X73119000Y-42600000D03*
X75300000Y-43200000D03*
X71600000Y-37700000D03*
X74770000Y-46610000D03*
X77570000Y-52990000D03*
X73770000Y-45870000D03*
X70800000Y-36300000D03*
D29*
X62265480Y-55042020D02*
X63290000Y-54017500D01*
X61403460Y-54180000D02*
X62265480Y-55042020D01*
X61232500Y-54180000D02*
X61403460Y-54180000D01*
X69010000Y-54750000D02*
X69010000Y-54460000D01*
X65270000Y-55790000D02*
X67970000Y-55790000D01*
X67970000Y-55790000D02*
X69010000Y-54750000D01*
X64430480Y-56629520D02*
X65270000Y-55790000D01*
X62265480Y-56296635D02*
X62598365Y-56629520D01*
X62265480Y-55042020D02*
X62265480Y-56296635D01*
X62598365Y-56629520D02*
X64430480Y-56629520D01*
X64772500Y-48227500D02*
X65000000Y-48000000D01*
X62550000Y-48227500D02*
X64772500Y-48227500D01*
X70060000Y-50087500D02*
X70862500Y-50087500D01*
X62550000Y-50127500D02*
X61360000Y-48937500D01*
X63497000Y-38197000D02*
X63500000Y-38200000D01*
X63003000Y-38197000D02*
X63497000Y-38197000D01*
X71875000Y-52295000D02*
X72150000Y-52570000D01*
X67940000Y-50377500D02*
X68890000Y-49427500D01*
X71875000Y-51100000D02*
X71875000Y-52295000D01*
X64122500Y-55817500D02*
X64810000Y-55130000D01*
X58477500Y-32342500D02*
X59420000Y-31400000D01*
X64500000Y-38200000D02*
X65800000Y-38200000D01*
X63290000Y-55817500D02*
X64122500Y-55817500D01*
X68890000Y-49427500D02*
X68890000Y-48890000D01*
X60450000Y-51767500D02*
X62090000Y-50127500D01*
X70862500Y-50087500D02*
X71875000Y-51100000D01*
X62090000Y-50127500D02*
X62550000Y-50127500D01*
X61056000Y-36250000D02*
X63003000Y-38197000D01*
X61360000Y-48937500D02*
X61360000Y-44960000D01*
X60881000Y-36250000D02*
X61056000Y-36250000D01*
X58250000Y-32342500D02*
X58477500Y-32342500D01*
X69472500Y-54460000D02*
X71832500Y-56820000D01*
X71860000Y-61760000D02*
X71860000Y-56847500D01*
D30*
X68000000Y-102000000D02*
X68000000Y-142000000D01*
D29*
X69010000Y-54460000D02*
X69472500Y-54460000D01*
X70050000Y-63570000D02*
X71860000Y-61760000D01*
X63074999Y-63951999D02*
X63456998Y-63570000D01*
X63456998Y-63570000D02*
X70050000Y-63570000D01*
X68000000Y-102000000D02*
X63074999Y-97074999D01*
X71860000Y-56847500D02*
X71832500Y-56820000D01*
X63074999Y-97074999D02*
X63074999Y-63951999D01*
X59450000Y-49110000D02*
X59450000Y-54137500D01*
X59710000Y-43920000D02*
X58990000Y-44640000D01*
X58990000Y-48650000D02*
X59450000Y-49110000D01*
X59407500Y-57277500D02*
X59410000Y-57280000D01*
X59407500Y-54180000D02*
X59407500Y-57277500D01*
X58990000Y-44640000D02*
X58990000Y-48650000D01*
X59410000Y-57280000D02*
X59410000Y-60397500D01*
X64346000Y-43920000D02*
X59710000Y-43920000D01*
X59410000Y-60397500D02*
X59397500Y-60410000D01*
X65070000Y-44819000D02*
X65070000Y-44644000D01*
X65070000Y-44644000D02*
X64346000Y-43920000D01*
X59450000Y-54137500D02*
X59407500Y-54180000D01*
X61712500Y-60900000D02*
X61222500Y-60410000D01*
X63150000Y-60900000D02*
X61712500Y-60900000D01*
X61310000Y-57280000D02*
X61310000Y-60322500D01*
X61310000Y-60322500D02*
X61222500Y-60410000D01*
X70007500Y-56820000D02*
X68210000Y-58617500D01*
X68210000Y-58617500D02*
X68210000Y-59690000D01*
X67260000Y-57262500D02*
X67692500Y-56830000D01*
X67260000Y-61690000D02*
X67260000Y-57262500D01*
X64100000Y-58900000D02*
X65622500Y-58900000D01*
X65622500Y-58900000D02*
X67692500Y-56830000D01*
D31*
X67800000Y-67000000D02*
X67100000Y-67700000D01*
X68550000Y-66250000D02*
X67800000Y-67000000D01*
X75610000Y-63780000D02*
X73140000Y-66250000D01*
X73140000Y-66250000D02*
X68550000Y-66250000D01*
X75610000Y-61640000D02*
X75610000Y-63780000D01*
D29*
X72644520Y-54594520D02*
X72510000Y-54460000D01*
X69870000Y-52102500D02*
X70060000Y-51912500D01*
X70060000Y-52010000D02*
X72510000Y-54460000D01*
X62910000Y-33710000D02*
X63000000Y-33800000D01*
X67940000Y-52102500D02*
X69870000Y-52102500D01*
X72644520Y-61611198D02*
X72644520Y-54594520D01*
X70060000Y-51912500D02*
X70060000Y-52010000D01*
X63800000Y-64300000D02*
X69955718Y-64300000D01*
X75100000Y-31800000D02*
X76640000Y-31800000D01*
X69955718Y-64300000D02*
X72644520Y-61611198D01*
X60881000Y-33710000D02*
X62910000Y-33710000D01*
X59990000Y-49732500D02*
X60450000Y-50192500D01*
X59990000Y-47782500D02*
X59990000Y-49732500D01*
D31*
X70150000Y-44819000D02*
X70150000Y-47857500D01*
X70150000Y-44819000D02*
X70150000Y-44453998D01*
X74707500Y-53032500D02*
X74707500Y-54090000D01*
X74707500Y-54090000D02*
X74707500Y-56625000D01*
X74400000Y-44141998D02*
X75793897Y-45535895D01*
X74660000Y-56682500D02*
X74660000Y-59640000D01*
X74400000Y-44141998D02*
X74400000Y-36580000D01*
X75793897Y-51946103D02*
X74707500Y-53032500D01*
X75793897Y-49356103D02*
X75793897Y-51946103D01*
X74050000Y-51100000D02*
X73725000Y-51100000D01*
X70150000Y-44453998D02*
X69565001Y-43868999D01*
X68194999Y-43868999D02*
X67610000Y-44453998D01*
X69565001Y-43868999D02*
X68194999Y-43868999D01*
X70150000Y-47857500D02*
X70147500Y-47860000D01*
X74400000Y-36580000D02*
X76140001Y-34839999D01*
X76140001Y-34839999D02*
X76640000Y-34340000D01*
X75793897Y-45535895D02*
X75793897Y-49356103D01*
X70147500Y-47860000D02*
X73865502Y-44141998D01*
X73865502Y-44141998D02*
X74400000Y-44141998D01*
X67610000Y-44453998D02*
X67610000Y-44819000D01*
X74712500Y-56630000D02*
X74660000Y-56682500D01*
X75793897Y-49356103D02*
X74050000Y-51100000D01*
D29*
X61480000Y-34980000D02*
X62100000Y-35600000D01*
X59990000Y-44960000D02*
X59990000Y-45957500D01*
X60200000Y-44750000D02*
X59990000Y-44960000D01*
X60881000Y-34980000D02*
X61480000Y-34980000D01*
X58585480Y-53719704D02*
X58585480Y-61895480D01*
X63680000Y-62150000D02*
X64080000Y-61750000D01*
X64080000Y-60210000D02*
X63360000Y-59490000D01*
X63360000Y-59490000D02*
X63360000Y-57840000D01*
X64080000Y-61750000D02*
X64080000Y-60210000D01*
X60210000Y-32440000D02*
X60881000Y-32440000D01*
X59570000Y-33660000D02*
X59570000Y-33080000D01*
X59570000Y-33080000D02*
X60210000Y-32440000D01*
X63360000Y-57840000D02*
X64857500Y-57840000D01*
X58740000Y-50184500D02*
X58740000Y-53565184D01*
X58740000Y-53565184D02*
X58585480Y-53719704D01*
X64857500Y-57840000D02*
X65867500Y-56830000D01*
X58840000Y-62150000D02*
X63680000Y-62150000D01*
X58725500Y-50170000D02*
X58740000Y-50184500D01*
X58585480Y-61895480D02*
X58840000Y-62150000D01*
X76100000Y-37420000D02*
X76640000Y-36880000D01*
X76100000Y-38200000D02*
X76100000Y-37420000D01*
X73119000Y-34980000D02*
X72080000Y-34980000D01*
X72080000Y-34980000D02*
X71800000Y-34700000D01*
X70250000Y-33710000D02*
X73119000Y-33710000D01*
X75900000Y-40300000D02*
X75900000Y-40160000D01*
X75900000Y-40160000D02*
X76640000Y-39420000D01*
X69500000Y-34460000D02*
X70250000Y-33710000D01*
X76640000Y-44500000D02*
X76600000Y-44500000D01*
X76600000Y-44500000D02*
X75300000Y-43200000D01*
X76532500Y-54090000D02*
X76532500Y-54027500D01*
X71600000Y-37700000D02*
X72939000Y-37700000D01*
X73725000Y-50100000D02*
X73725000Y-47655000D01*
X76532500Y-54027500D02*
X77570000Y-52990000D01*
X73725000Y-47655000D02*
X74770000Y-46610000D01*
X72939000Y-37700000D02*
X73119000Y-37520000D01*
X70800000Y-36300000D02*
X73069000Y-36300000D01*
X71972500Y-47667500D02*
X73770000Y-45870000D01*
X73069000Y-36300000D02*
X73119000Y-36250000D01*
X71972500Y-50002500D02*
X71875000Y-50100000D01*
X71972500Y-47860000D02*
X71972500Y-47667500D01*
X71972500Y-47860000D02*
X71972500Y-50002500D01*
X62530000Y-44819000D02*
X62530000Y-45270000D01*
X65000000Y-47740000D02*
X65000000Y-48000000D01*
X62530000Y-45270000D02*
X65000000Y-47740000D01*
X65760000Y-51692500D02*
X65760000Y-50870000D01*
X66674999Y-46774999D02*
X67500000Y-47600000D01*
X67500000Y-47600000D02*
X67500000Y-48000000D01*
X67020000Y-49630000D02*
X67500000Y-49150000D01*
X65094999Y-46774999D02*
X66674999Y-46774999D01*
X63800000Y-44819000D02*
X63800000Y-45480000D01*
X63800000Y-45480000D02*
X65094999Y-46774999D01*
X67500000Y-49150000D02*
X67500000Y-48000000D01*
X67000000Y-49630000D02*
X67020000Y-49630000D01*
X65760000Y-50870000D02*
X67000000Y-49630000D01*
X60881000Y-38790000D02*
X59590000Y-38790000D01*
X57390000Y-33467500D02*
X57390000Y-29750000D01*
X58600000Y-28540000D02*
X59260000Y-28540000D01*
X59590000Y-38790000D02*
X58800000Y-38000000D01*
X57390000Y-29750000D02*
X58600000Y-28540000D01*
X58800000Y-38000000D02*
X58800000Y-34877500D01*
X58800000Y-34877500D02*
X57930000Y-34007500D01*
X57930000Y-34007500D02*
X57390000Y-33467500D01*
X59260000Y-28540000D02*
X59260000Y-29507500D01*
X59260000Y-29507500D02*
X58250000Y-30517500D01*
X57930000Y-38130000D02*
X57930000Y-35507500D01*
X60881000Y-40060000D02*
X59860000Y-40060000D01*
X59860000Y-40060000D02*
X57930000Y-38130000D01*
G04 #@! TA.AperFunction,Conductor*
G36*
X57716512Y-38812870D02*
G01*
X57723095Y-38818999D01*
X59356343Y-40452247D01*
X59363887Y-40460537D01*
X59368000Y-40467018D01*
X59373777Y-40472443D01*
X59417667Y-40513658D01*
X59420509Y-40516413D01*
X59440230Y-40536134D01*
X59443425Y-40538612D01*
X59452447Y-40546318D01*
X59484679Y-40576586D01*
X59491628Y-40580406D01*
X59502432Y-40586346D01*
X59518956Y-40597199D01*
X59534959Y-40609613D01*
X59575543Y-40627176D01*
X59586173Y-40632383D01*
X59624940Y-40653695D01*
X59632612Y-40655665D01*
X59636227Y-40657096D01*
X59692201Y-40700771D01*
X59715676Y-40767774D01*
X59707824Y-40818476D01*
X59679255Y-40894684D01*
X59672500Y-40956866D01*
X59672500Y-41703134D01*
X59679255Y-41765316D01*
X59682029Y-41772715D01*
X59718839Y-41870905D01*
X59730385Y-41901705D01*
X59733727Y-41906164D01*
X59748530Y-41973848D01*
X59733933Y-42023561D01*
X59730385Y-42028295D01*
X59679255Y-42164684D01*
X59672500Y-42226866D01*
X59672500Y-42973134D01*
X59679255Y-43035316D01*
X59708835Y-43114221D01*
X59711440Y-43121169D01*
X59716623Y-43191976D01*
X59682702Y-43254345D01*
X59620447Y-43288475D01*
X59617100Y-43289106D01*
X59610111Y-43289326D01*
X59602501Y-43291537D01*
X59602495Y-43291538D01*
X59590659Y-43294977D01*
X59571296Y-43298988D01*
X59551203Y-43301526D01*
X59543836Y-43304443D01*
X59543831Y-43304444D01*
X59510092Y-43317802D01*
X59498865Y-43321646D01*
X59456407Y-43333982D01*
X59449581Y-43338019D01*
X59438972Y-43344293D01*
X59421224Y-43352988D01*
X59402383Y-43360448D01*
X59395967Y-43365110D01*
X59395966Y-43365110D01*
X59366613Y-43386436D01*
X59356693Y-43392952D01*
X59325465Y-43411420D01*
X59325462Y-43411422D01*
X59318638Y-43415458D01*
X59304317Y-43429779D01*
X59289284Y-43442619D01*
X59272893Y-43454528D01*
X59250766Y-43481275D01*
X59244712Y-43488593D01*
X59236722Y-43497374D01*
X58597742Y-44136353D01*
X58589463Y-44143887D01*
X58582982Y-44148000D01*
X58536357Y-44197651D01*
X58533602Y-44200493D01*
X58513865Y-44220230D01*
X58511385Y-44223427D01*
X58503682Y-44232447D01*
X58473414Y-44264679D01*
X58469595Y-44271625D01*
X58469593Y-44271628D01*
X58463652Y-44282434D01*
X58452801Y-44298953D01*
X58440386Y-44314959D01*
X58437241Y-44322228D01*
X58437238Y-44322232D01*
X58422826Y-44355537D01*
X58417609Y-44366187D01*
X58396305Y-44404940D01*
X58394334Y-44412615D01*
X58394334Y-44412616D01*
X58391267Y-44424562D01*
X58384863Y-44443266D01*
X58380808Y-44452638D01*
X58376819Y-44461855D01*
X58375580Y-44469678D01*
X58375577Y-44469688D01*
X58369901Y-44505524D01*
X58367495Y-44517144D01*
X58356500Y-44559970D01*
X58356500Y-44580224D01*
X58354949Y-44599934D01*
X58351780Y-44619943D01*
X58352526Y-44627835D01*
X58355941Y-44663961D01*
X58356500Y-44675819D01*
X58356500Y-48571233D01*
X58355973Y-48582416D01*
X58354298Y-48589909D01*
X58354547Y-48597835D01*
X58354547Y-48597836D01*
X58356438Y-48657986D01*
X58356500Y-48661945D01*
X58356500Y-48689856D01*
X58356997Y-48693790D01*
X58356997Y-48693791D01*
X58357005Y-48693856D01*
X58357938Y-48705693D01*
X58359327Y-48749889D01*
X58364978Y-48769339D01*
X58368987Y-48788700D01*
X58371526Y-48808797D01*
X58374445Y-48816168D01*
X58374445Y-48816170D01*
X58387804Y-48849912D01*
X58391649Y-48861142D01*
X58403982Y-48903593D01*
X58408015Y-48910412D01*
X58408017Y-48910417D01*
X58414293Y-48921028D01*
X58422988Y-48938776D01*
X58430448Y-48957617D01*
X58435110Y-48964033D01*
X58435110Y-48964034D01*
X58456436Y-48993387D01*
X58462952Y-49003307D01*
X58485458Y-49041362D01*
X58499779Y-49055683D01*
X58512620Y-49070717D01*
X58519868Y-49080694D01*
X58519871Y-49080697D01*
X58524528Y-49087107D01*
X58527481Y-49089550D01*
X58558709Y-49151276D01*
X58551422Y-49221897D01*
X58507110Y-49277368D01*
X58461005Y-49297424D01*
X58443212Y-49301206D01*
X58437182Y-49303891D01*
X58437181Y-49303891D01*
X58274778Y-49376197D01*
X58274776Y-49376198D01*
X58268748Y-49378882D01*
X58263407Y-49382762D01*
X58263406Y-49382763D01*
X58241098Y-49398971D01*
X58114247Y-49491134D01*
X58109826Y-49496044D01*
X58109825Y-49496045D01*
X58010611Y-49606234D01*
X57986460Y-49633056D01*
X57890973Y-49798444D01*
X57831958Y-49980072D01*
X57811996Y-50170000D01*
X57812686Y-50176565D01*
X57816135Y-50209376D01*
X57831958Y-50359928D01*
X57890973Y-50541556D01*
X57894276Y-50547278D01*
X57894277Y-50547279D01*
X57910727Y-50575771D01*
X57986460Y-50706944D01*
X57990878Y-50711851D01*
X57990879Y-50711852D01*
X58074136Y-50804318D01*
X58104853Y-50868325D01*
X58106500Y-50888628D01*
X58106500Y-53254450D01*
X58086498Y-53322571D01*
X58078833Y-53332394D01*
X58074321Y-53338603D01*
X58068894Y-53344383D01*
X58065075Y-53351329D01*
X58065073Y-53351332D01*
X58059132Y-53362138D01*
X58048281Y-53378657D01*
X58035866Y-53394663D01*
X58032721Y-53401932D01*
X58032718Y-53401936D01*
X58018306Y-53435241D01*
X58013089Y-53445891D01*
X57991785Y-53484644D01*
X57989814Y-53492319D01*
X57989814Y-53492320D01*
X57986747Y-53504266D01*
X57980343Y-53522970D01*
X57972299Y-53541559D01*
X57971060Y-53549382D01*
X57971057Y-53549392D01*
X57965381Y-53585228D01*
X57962975Y-53596848D01*
X57951980Y-53639674D01*
X57951980Y-53659928D01*
X57950429Y-53679638D01*
X57947260Y-53699647D01*
X57948006Y-53707539D01*
X57951421Y-53743665D01*
X57951980Y-53755523D01*
X57951980Y-61816713D01*
X57951453Y-61827896D01*
X57949778Y-61835389D01*
X57950027Y-61843315D01*
X57950027Y-61843316D01*
X57951918Y-61903466D01*
X57951980Y-61907425D01*
X57951980Y-61935336D01*
X57952477Y-61939270D01*
X57952477Y-61939271D01*
X57952485Y-61939336D01*
X57953418Y-61951173D01*
X57954807Y-61995369D01*
X57960458Y-62014819D01*
X57964467Y-62034180D01*
X57967006Y-62054277D01*
X57969925Y-62061648D01*
X57969925Y-62061650D01*
X57983284Y-62095392D01*
X57987129Y-62106622D01*
X57994241Y-62131101D01*
X57999462Y-62149073D01*
X58003495Y-62155892D01*
X58003497Y-62155897D01*
X58009773Y-62166508D01*
X58018468Y-62184256D01*
X58025928Y-62203097D01*
X58030590Y-62209513D01*
X58030590Y-62209514D01*
X58051916Y-62238867D01*
X58058432Y-62248787D01*
X58080938Y-62286842D01*
X58095259Y-62301163D01*
X58108099Y-62316196D01*
X58120008Y-62332587D01*
X58126114Y-62337638D01*
X58154085Y-62360778D01*
X58162864Y-62368768D01*
X58336343Y-62542247D01*
X58343887Y-62550537D01*
X58348000Y-62557018D01*
X58353777Y-62562443D01*
X58397667Y-62603658D01*
X58400509Y-62606413D01*
X58420231Y-62626135D01*
X58423355Y-62628558D01*
X58423359Y-62628562D01*
X58423424Y-62628612D01*
X58432445Y-62636317D01*
X58464679Y-62666586D01*
X58471627Y-62670405D01*
X58471629Y-62670407D01*
X58482432Y-62676346D01*
X58498959Y-62687202D01*
X58508698Y-62694757D01*
X58508700Y-62694758D01*
X58514960Y-62699614D01*
X58555540Y-62717174D01*
X58566188Y-62722391D01*
X58590976Y-62736018D01*
X58604940Y-62743695D01*
X58612616Y-62745666D01*
X58612619Y-62745667D01*
X58624562Y-62748733D01*
X58643267Y-62755137D01*
X58661855Y-62763181D01*
X58669678Y-62764420D01*
X58669688Y-62764423D01*
X58705524Y-62770099D01*
X58717144Y-62772505D01*
X58748959Y-62780673D01*
X58759970Y-62783500D01*
X58780224Y-62783500D01*
X58799934Y-62785051D01*
X58819943Y-62788220D01*
X58827835Y-62787474D01*
X58863961Y-62784059D01*
X58875819Y-62783500D01*
X63073961Y-62783500D01*
X63142082Y-62803502D01*
X63188575Y-62857158D01*
X63198679Y-62927432D01*
X63169185Y-62992012D01*
X63148020Y-63011437D01*
X63113623Y-63036427D01*
X63103705Y-63042943D01*
X63085017Y-63053995D01*
X63065635Y-63065458D01*
X63051311Y-63079782D01*
X63036279Y-63092621D01*
X63019891Y-63104528D01*
X62991710Y-63138593D01*
X62983720Y-63147373D01*
X62682746Y-63448347D01*
X62674460Y-63455887D01*
X62667981Y-63459999D01*
X62662556Y-63465776D01*
X62621356Y-63509650D01*
X62618601Y-63512492D01*
X62598864Y-63532229D01*
X62596384Y-63535426D01*
X62588681Y-63544446D01*
X62558413Y-63576678D01*
X62554594Y-63583624D01*
X62554592Y-63583627D01*
X62548651Y-63594433D01*
X62537800Y-63610952D01*
X62525385Y-63626958D01*
X62522240Y-63634227D01*
X62522237Y-63634231D01*
X62507825Y-63667536D01*
X62502608Y-63678186D01*
X62481304Y-63716939D01*
X62479333Y-63724614D01*
X62479333Y-63724615D01*
X62476266Y-63736561D01*
X62469862Y-63755265D01*
X62461818Y-63773854D01*
X62460579Y-63781677D01*
X62460576Y-63781687D01*
X62454900Y-63817523D01*
X62452494Y-63829143D01*
X62441499Y-63871969D01*
X62441499Y-63892223D01*
X62439948Y-63911933D01*
X62436779Y-63931942D01*
X62437525Y-63939834D01*
X62440940Y-63975960D01*
X62441499Y-63987818D01*
X62441499Y-66427284D01*
X62421497Y-66495405D01*
X62367841Y-66541898D01*
X62297567Y-66552002D01*
X62239057Y-66527447D01*
X62061575Y-66391998D01*
X62058035Y-66389296D01*
X61996447Y-66354805D01*
X61824420Y-66258465D01*
X61824419Y-66258465D01*
X61820529Y-66256286D01*
X61752313Y-66229895D01*
X61570807Y-66159675D01*
X61570801Y-66159673D01*
X61566652Y-66158068D01*
X61562320Y-66157064D01*
X61562317Y-66157063D01*
X61444838Y-66129833D01*
X61301469Y-66096602D01*
X61030270Y-66073114D01*
X61025835Y-66073358D01*
X61025831Y-66073358D01*
X60762910Y-66087827D01*
X60762903Y-66087828D01*
X60758467Y-66088072D01*
X60491484Y-66141178D01*
X60234647Y-66231373D01*
X60230696Y-66233426D01*
X60230690Y-66233428D01*
X60098304Y-66302198D01*
X59993080Y-66356857D01*
X59989465Y-66359440D01*
X59989459Y-66359444D01*
X59775226Y-66512537D01*
X59775222Y-66512540D01*
X59771605Y-66515125D01*
X59768385Y-66518197D01*
X59646228Y-66634729D01*
X59574639Y-66703021D01*
X59406113Y-66916796D01*
X59269390Y-67152183D01*
X59267722Y-67156300D01*
X59267719Y-67156307D01*
X59243867Y-67215196D01*
X59167196Y-67404486D01*
X59151743Y-67466697D01*
X59110828Y-67631410D01*
X59101572Y-67668671D01*
X59101118Y-67673099D01*
X59101118Y-67673101D01*
X59074281Y-67935036D01*
X59073827Y-67939468D01*
X59074002Y-67943920D01*
X59076205Y-68000000D01*
X59079017Y-68071556D01*
X59084514Y-68211472D01*
X59133420Y-68479256D01*
X59219570Y-68737478D01*
X59221562Y-68741465D01*
X59221563Y-68741467D01*
X59303542Y-68905533D01*
X59341243Y-68980986D01*
X59496014Y-69204920D01*
X59680793Y-69404813D01*
X59684247Y-69407625D01*
X59888437Y-69573862D01*
X59888441Y-69573865D01*
X59891894Y-69576676D01*
X59895716Y-69578977D01*
X60053484Y-69673961D01*
X60125104Y-69717080D01*
X60221741Y-69758001D01*
X60371668Y-69821487D01*
X60371673Y-69821489D01*
X60375771Y-69823224D01*
X60380068Y-69824363D01*
X60380073Y-69824365D01*
X60507332Y-69858106D01*
X60638893Y-69892989D01*
X60909220Y-69924985D01*
X61181358Y-69918571D01*
X61341909Y-69891848D01*
X61445481Y-69874609D01*
X61445483Y-69874609D01*
X61449878Y-69873877D01*
X61709422Y-69791795D01*
X61954810Y-69673961D01*
X62108090Y-69571543D01*
X62177446Y-69525201D01*
X62177450Y-69525198D01*
X62181148Y-69522727D01*
X62231436Y-69477685D01*
X62295522Y-69447137D01*
X62365952Y-69456085D01*
X62420364Y-69501691D01*
X62441499Y-69571543D01*
X62441499Y-96996232D01*
X62440972Y-97007415D01*
X62439297Y-97014908D01*
X62439546Y-97022834D01*
X62439546Y-97022835D01*
X62441437Y-97082985D01*
X62441499Y-97086944D01*
X62441499Y-97114855D01*
X62441996Y-97118789D01*
X62441996Y-97118790D01*
X62442004Y-97118855D01*
X62442937Y-97130692D01*
X62444326Y-97174888D01*
X62449977Y-97194338D01*
X62453986Y-97213699D01*
X62455285Y-97223977D01*
X62456525Y-97233796D01*
X62459444Y-97241167D01*
X62459444Y-97241169D01*
X62472803Y-97274911D01*
X62476648Y-97286141D01*
X62488981Y-97328592D01*
X62493014Y-97335411D01*
X62493016Y-97335416D01*
X62499292Y-97346027D01*
X62507987Y-97363775D01*
X62515447Y-97382616D01*
X62520109Y-97389032D01*
X62520109Y-97389033D01*
X62541435Y-97418386D01*
X62547951Y-97428306D01*
X62570457Y-97466361D01*
X62584778Y-97480682D01*
X62597618Y-97495715D01*
X62609527Y-97512106D01*
X62615633Y-97517157D01*
X62643604Y-97540297D01*
X62652383Y-97548287D01*
X63603319Y-98499223D01*
X63637345Y-98561535D01*
X63632280Y-98632350D01*
X63612970Y-98666582D01*
X63539511Y-98759265D01*
X63538056Y-98761455D01*
X63538048Y-98761466D01*
X63412024Y-98951148D01*
X63283977Y-99143875D01*
X63061522Y-99548518D01*
X62873707Y-99970357D01*
X62721850Y-100406432D01*
X62607015Y-100853686D01*
X62606573Y-100856301D01*
X62606571Y-100856309D01*
X62568647Y-101080526D01*
X62530007Y-101308979D01*
X62491500Y-101767548D01*
X62491500Y-142118530D01*
X62505869Y-142461355D01*
X62563742Y-142919474D01*
X62564289Y-142922047D01*
X62654295Y-143345489D01*
X62659748Y-143371144D01*
X62793211Y-143813196D01*
X62963196Y-144242529D01*
X63168511Y-144656133D01*
X63407715Y-145051107D01*
X63679131Y-145424678D01*
X63980855Y-145774229D01*
X64310770Y-146097305D01*
X64666562Y-146391642D01*
X65045736Y-146655175D01*
X65445632Y-146886055D01*
X65863445Y-147082663D01*
X65865912Y-147083580D01*
X65865918Y-147083583D01*
X66020143Y-147140938D01*
X66296245Y-147243620D01*
X66298768Y-147244324D01*
X66298779Y-147244328D01*
X66738458Y-147367088D01*
X66738466Y-147367090D01*
X66740995Y-147367796D01*
X67194576Y-147454321D01*
X67653806Y-147502588D01*
X67936807Y-147508516D01*
X68112826Y-147512204D01*
X68112833Y-147512204D01*
X68115465Y-147512259D01*
X68576314Y-147483265D01*
X68578932Y-147482878D01*
X68578936Y-147482878D01*
X69030501Y-147416196D01*
X69030504Y-147416196D01*
X69033121Y-147415809D01*
X69035693Y-147415206D01*
X69035697Y-147415205D01*
X69161498Y-147385699D01*
X69482681Y-147310366D01*
X69485192Y-147309550D01*
X69485196Y-147309549D01*
X69919330Y-147168490D01*
X69919333Y-147168489D01*
X69921841Y-147167674D01*
X70347520Y-146988735D01*
X70349853Y-146987515D01*
X70349858Y-146987513D01*
X70754401Y-146776023D01*
X70754407Y-146776019D01*
X70756734Y-146774803D01*
X70822462Y-146733091D01*
X71144374Y-146528800D01*
X71144380Y-146528796D01*
X71146611Y-146527380D01*
X71514417Y-146248200D01*
X71857571Y-145939222D01*
X72173668Y-145602614D01*
X72460489Y-145240735D01*
X72585061Y-145053239D01*
X72714567Y-144858317D01*
X72714571Y-144858311D01*
X72716023Y-144856125D01*
X72938478Y-144451482D01*
X73126293Y-144029643D01*
X73278150Y-143593568D01*
X73331253Y-143386747D01*
X73392323Y-143148891D01*
X73392985Y-143146314D01*
X73400130Y-143104075D01*
X73469551Y-142693634D01*
X73469993Y-142691021D01*
X73508500Y-142232452D01*
X73508500Y-101881470D01*
X73494131Y-101538645D01*
X73436258Y-101080526D01*
X73388599Y-100856309D01*
X73340798Y-100631423D01*
X73340796Y-100631415D01*
X73340252Y-100628856D01*
X73206789Y-100186804D01*
X73036804Y-99757471D01*
X72831489Y-99343867D01*
X72592285Y-98948893D01*
X72320869Y-98575322D01*
X72019145Y-98225771D01*
X71689230Y-97902695D01*
X71333438Y-97608358D01*
X70954264Y-97344825D01*
X70554368Y-97113945D01*
X70136555Y-96917337D01*
X70134088Y-96916420D01*
X70134082Y-96916417D01*
X69905773Y-96831510D01*
X69703755Y-96756380D01*
X69701232Y-96755676D01*
X69701221Y-96755672D01*
X69261542Y-96632912D01*
X69261534Y-96632910D01*
X69259005Y-96632204D01*
X68805424Y-96545679D01*
X68346194Y-96497412D01*
X68063193Y-96491484D01*
X67887174Y-96487796D01*
X67887167Y-96487796D01*
X67884535Y-96487741D01*
X67423686Y-96516735D01*
X67421068Y-96517122D01*
X67421064Y-96517122D01*
X66969499Y-96583804D01*
X66969496Y-96583804D01*
X66966879Y-96584191D01*
X66964307Y-96584794D01*
X66964303Y-96584795D01*
X66838502Y-96614301D01*
X66517319Y-96689634D01*
X66514808Y-96690450D01*
X66514804Y-96690451D01*
X66080670Y-96831510D01*
X66078159Y-96832326D01*
X65652480Y-97011265D01*
X65650147Y-97012485D01*
X65650142Y-97012487D01*
X65245599Y-97223977D01*
X65245593Y-97223981D01*
X65243266Y-97225197D01*
X65241038Y-97226611D01*
X64855632Y-97471196D01*
X64855623Y-97471202D01*
X64853389Y-97472620D01*
X64665298Y-97615389D01*
X64598946Y-97640641D01*
X64529473Y-97626013D01*
X64500025Y-97604120D01*
X63745404Y-96849499D01*
X63711378Y-96787187D01*
X63708499Y-96760404D01*
X63708499Y-65334500D01*
X63728501Y-65266379D01*
X63782157Y-65219886D01*
X63834499Y-65208500D01*
X63895487Y-65208500D01*
X63901939Y-65207128D01*
X63901944Y-65207128D01*
X63988888Y-65188647D01*
X64082288Y-65168794D01*
X64088319Y-65166109D01*
X64250722Y-65093803D01*
X64250724Y-65093802D01*
X64256752Y-65091118D01*
X64411253Y-64978866D01*
X64415668Y-64973963D01*
X64420580Y-64969540D01*
X64421705Y-64970789D01*
X64475014Y-64937949D01*
X64508200Y-64933500D01*
X69876951Y-64933500D01*
X69888134Y-64934027D01*
X69895627Y-64935702D01*
X69903553Y-64935453D01*
X69903554Y-64935453D01*
X69963704Y-64933562D01*
X69967663Y-64933500D01*
X69995574Y-64933500D01*
X69999509Y-64933003D01*
X69999574Y-64932995D01*
X70011411Y-64932062D01*
X70043669Y-64931048D01*
X70047688Y-64930922D01*
X70055607Y-64930673D01*
X70075061Y-64925021D01*
X70094418Y-64921013D01*
X70106648Y-64919468D01*
X70106649Y-64919468D01*
X70114515Y-64918474D01*
X70121886Y-64915555D01*
X70121888Y-64915555D01*
X70155630Y-64902196D01*
X70166860Y-64898351D01*
X70201701Y-64888229D01*
X70201702Y-64888229D01*
X70209311Y-64886018D01*
X70216130Y-64881985D01*
X70216135Y-64881983D01*
X70226746Y-64875707D01*
X70244494Y-64867012D01*
X70263335Y-64859552D01*
X70299105Y-64833564D01*
X70309025Y-64827048D01*
X70340253Y-64808580D01*
X70340256Y-64808578D01*
X70347080Y-64804542D01*
X70361401Y-64790221D01*
X70376435Y-64777380D01*
X70386412Y-64770131D01*
X70392825Y-64765472D01*
X70421016Y-64731395D01*
X70429006Y-64722616D01*
X73036767Y-62114855D01*
X73045057Y-62107311D01*
X73051538Y-62103198D01*
X73098179Y-62053530D01*
X73100933Y-62050689D01*
X73120654Y-62030968D01*
X73123132Y-62027773D01*
X73130838Y-62018751D01*
X73155678Y-61992299D01*
X73161106Y-61986519D01*
X73170866Y-61968766D01*
X73181719Y-61952243D01*
X73182876Y-61950751D01*
X73194133Y-61936239D01*
X73211696Y-61895655D01*
X73216903Y-61885025D01*
X73238215Y-61846258D01*
X73240186Y-61838581D01*
X73240188Y-61838576D01*
X73243252Y-61826640D01*
X73249658Y-61807928D01*
X73251651Y-61803324D01*
X73257701Y-61789343D01*
X73258941Y-61781515D01*
X73258943Y-61781508D01*
X73264619Y-61745674D01*
X73267025Y-61734054D01*
X73276048Y-61698909D01*
X73276048Y-61698908D01*
X73278020Y-61691228D01*
X73278020Y-61670974D01*
X73279571Y-61651263D01*
X73281500Y-61639084D01*
X73282740Y-61631255D01*
X73278579Y-61587236D01*
X73278020Y-61575379D01*
X73278020Y-55896185D01*
X73298022Y-55828064D01*
X73351678Y-55781571D01*
X73359790Y-55778203D01*
X73398297Y-55763767D01*
X73406705Y-55760615D01*
X73523261Y-55673261D01*
X73610615Y-55556705D01*
X73661745Y-55420316D01*
X73668500Y-55358134D01*
X73668500Y-54897812D01*
X73688502Y-54829691D01*
X73742158Y-54783198D01*
X73812432Y-54773094D01*
X73877012Y-54802588D01*
X73883513Y-54808634D01*
X73884093Y-54809213D01*
X73912019Y-54837091D01*
X73946097Y-54899374D01*
X73949000Y-54926263D01*
X73949000Y-55970891D01*
X73930259Y-56037008D01*
X73919362Y-56054687D01*
X73906791Y-56075080D01*
X73852026Y-56240191D01*
X73841500Y-56342928D01*
X73841500Y-56917072D01*
X73841837Y-56920318D01*
X73841837Y-56920322D01*
X73851440Y-57012868D01*
X73852293Y-57021093D01*
X73854474Y-57027629D01*
X73854474Y-57027631D01*
X73895024Y-57149173D01*
X73901500Y-57189049D01*
X73901500Y-58778411D01*
X73881498Y-58846532D01*
X73876326Y-58853975D01*
X73809385Y-58943295D01*
X73758255Y-59079684D01*
X73751500Y-59141866D01*
X73751500Y-60138134D01*
X73758255Y-60200316D01*
X73809385Y-60336705D01*
X73896739Y-60453261D01*
X74013295Y-60540615D01*
X74149684Y-60591745D01*
X74211866Y-60598500D01*
X74773059Y-60598500D01*
X74841180Y-60618502D01*
X74887673Y-60672158D01*
X74897777Y-60742432D01*
X74868283Y-60807012D01*
X74859995Y-60814734D01*
X74860269Y-60815008D01*
X74853919Y-60821358D01*
X74846739Y-60826739D01*
X74759385Y-60943295D01*
X74708255Y-61079684D01*
X74701500Y-61141866D01*
X74701500Y-62138134D01*
X74708255Y-62200316D01*
X74759385Y-62336705D01*
X74777427Y-62360778D01*
X74826326Y-62426024D01*
X74851174Y-62492530D01*
X74851500Y-62501589D01*
X74851500Y-63413629D01*
X74831498Y-63481750D01*
X74814595Y-63502724D01*
X72862724Y-65454595D01*
X72800412Y-65488621D01*
X72773629Y-65491500D01*
X69092587Y-65491500D01*
X69018528Y-65467437D01*
X69012098Y-65462765D01*
X69012091Y-65462761D01*
X69006752Y-65458882D01*
X69000724Y-65456198D01*
X69000722Y-65456197D01*
X68838319Y-65383891D01*
X68838318Y-65383891D01*
X68832288Y-65381206D01*
X68738888Y-65361353D01*
X68651944Y-65342872D01*
X68651939Y-65342872D01*
X68645487Y-65341500D01*
X68454513Y-65341500D01*
X68448061Y-65342872D01*
X68448056Y-65342872D01*
X68361112Y-65361353D01*
X68267712Y-65381206D01*
X68261682Y-65383891D01*
X68261681Y-65383891D01*
X68099278Y-65456197D01*
X68099276Y-65456198D01*
X68093248Y-65458882D01*
X68087907Y-65462762D01*
X68087906Y-65462763D01*
X68081473Y-65467437D01*
X67938747Y-65571134D01*
X67810960Y-65713056D01*
X67715473Y-65878444D01*
X67713431Y-65884729D01*
X67664404Y-66035618D01*
X67624331Y-66094224D01*
X67570768Y-66119929D01*
X67552539Y-66123803D01*
X67524170Y-66129833D01*
X67524167Y-66129834D01*
X67517712Y-66131206D01*
X67511682Y-66133891D01*
X67511681Y-66133891D01*
X67349278Y-66206197D01*
X67349276Y-66206198D01*
X67343248Y-66208882D01*
X67337907Y-66212762D01*
X67337906Y-66212763D01*
X67287843Y-66249136D01*
X67188747Y-66321134D01*
X67184326Y-66326044D01*
X67184325Y-66326045D01*
X67154253Y-66359444D01*
X67060960Y-66463056D01*
X66965473Y-66628444D01*
X66941241Y-66703021D01*
X66928146Y-66743324D01*
X66888072Y-66801930D01*
X66834513Y-66827634D01*
X66824174Y-66829832D01*
X66824170Y-66829833D01*
X66817712Y-66831206D01*
X66811682Y-66833891D01*
X66811681Y-66833891D01*
X66649278Y-66906197D01*
X66649276Y-66906198D01*
X66643248Y-66908882D01*
X66637907Y-66912762D01*
X66637906Y-66912763D01*
X66587843Y-66949136D01*
X66488747Y-67021134D01*
X66484326Y-67026044D01*
X66484325Y-67026045D01*
X66374218Y-67148332D01*
X66360960Y-67163056D01*
X66265473Y-67328444D01*
X66206458Y-67510072D01*
X66205768Y-67516633D01*
X66205768Y-67516635D01*
X66203118Y-67541852D01*
X66186496Y-67700000D01*
X66187186Y-67706565D01*
X66203955Y-67866109D01*
X66206458Y-67889928D01*
X66265473Y-68071556D01*
X66360960Y-68236944D01*
X66488747Y-68378866D01*
X66643248Y-68491118D01*
X66649276Y-68493802D01*
X66649278Y-68493803D01*
X66736551Y-68532659D01*
X66817712Y-68568794D01*
X66911112Y-68588647D01*
X66998056Y-68607128D01*
X66998061Y-68607128D01*
X67004513Y-68608500D01*
X67195487Y-68608500D01*
X67201939Y-68607128D01*
X67201944Y-68607128D01*
X67288888Y-68588647D01*
X67382288Y-68568794D01*
X67463449Y-68532659D01*
X67550722Y-68493803D01*
X67550724Y-68493802D01*
X67556752Y-68491118D01*
X67711253Y-68378866D01*
X67839040Y-68236944D01*
X67934527Y-68071556D01*
X67971854Y-67956676D01*
X68011928Y-67898070D01*
X68065487Y-67872366D01*
X68075826Y-67870168D01*
X68075830Y-67870167D01*
X68082288Y-67868794D01*
X68088319Y-67866109D01*
X68250722Y-67793803D01*
X68250724Y-67793802D01*
X68256752Y-67791118D01*
X68411253Y-67678866D01*
X68539040Y-67536944D01*
X68634527Y-67371556D01*
X68685597Y-67214381D01*
X68725669Y-67155776D01*
X68779232Y-67130071D01*
X68797461Y-67126197D01*
X68825830Y-67120167D01*
X68825833Y-67120166D01*
X68832288Y-67118794D01*
X68877308Y-67098750D01*
X69000722Y-67043803D01*
X69000724Y-67043802D01*
X69006752Y-67041118D01*
X69012091Y-67037239D01*
X69012098Y-67037235D01*
X69018528Y-67032563D01*
X69092587Y-67008500D01*
X73072930Y-67008500D01*
X73091880Y-67009933D01*
X73106115Y-67012099D01*
X73106119Y-67012099D01*
X73113349Y-67013199D01*
X73129179Y-67011911D01*
X73198696Y-67026323D01*
X73249387Y-67076032D01*
X73265156Y-67145255D01*
X73256179Y-67184799D01*
X73167196Y-67404486D01*
X73151743Y-67466697D01*
X73110828Y-67631410D01*
X73101572Y-67668671D01*
X73101118Y-67673099D01*
X73101118Y-67673101D01*
X73074281Y-67935036D01*
X73073827Y-67939468D01*
X73074002Y-67943920D01*
X73076205Y-68000000D01*
X73079017Y-68071556D01*
X73084514Y-68211472D01*
X73133420Y-68479256D01*
X73219570Y-68737478D01*
X73221562Y-68741465D01*
X73221563Y-68741467D01*
X73303542Y-68905533D01*
X73341243Y-68980986D01*
X73496014Y-69204920D01*
X73680793Y-69404813D01*
X73684247Y-69407625D01*
X73888437Y-69573862D01*
X73888441Y-69573865D01*
X73891894Y-69576676D01*
X73895716Y-69578977D01*
X74053484Y-69673961D01*
X74125104Y-69717080D01*
X74221741Y-69758001D01*
X74371668Y-69821487D01*
X74371673Y-69821489D01*
X74375771Y-69823224D01*
X74380068Y-69824363D01*
X74380073Y-69824365D01*
X74507332Y-69858106D01*
X74638893Y-69892989D01*
X74909220Y-69924985D01*
X75181358Y-69918571D01*
X75341909Y-69891848D01*
X75445481Y-69874609D01*
X75445483Y-69874609D01*
X75449878Y-69873877D01*
X75709422Y-69791795D01*
X75954810Y-69673961D01*
X76108090Y-69571543D01*
X76177446Y-69525201D01*
X76177450Y-69525198D01*
X76181148Y-69522727D01*
X76383918Y-69341110D01*
X76559076Y-69132735D01*
X76703126Y-68901759D01*
X76777624Y-68733249D01*
X76811396Y-68656857D01*
X76813194Y-68652790D01*
X76887084Y-68390796D01*
X76892425Y-68351032D01*
X76922894Y-68124187D01*
X76922895Y-68124179D01*
X76923321Y-68121005D01*
X76927124Y-68000000D01*
X76907898Y-67728466D01*
X76901770Y-67700000D01*
X76851541Y-67466697D01*
X76851541Y-67466695D01*
X76850605Y-67462350D01*
X76756387Y-67206961D01*
X76647392Y-67004956D01*
X76629238Y-66971311D01*
X76629238Y-66971310D01*
X76627125Y-66967395D01*
X76465397Y-66748433D01*
X76441500Y-66724157D01*
X76277561Y-66557624D01*
X76274430Y-66554443D01*
X76058035Y-66389296D01*
X75996447Y-66354805D01*
X75824420Y-66258465D01*
X75824419Y-66258465D01*
X75820529Y-66256286D01*
X75752313Y-66229895D01*
X75570807Y-66159675D01*
X75570801Y-66159673D01*
X75566652Y-66158068D01*
X75562320Y-66157064D01*
X75562317Y-66157063D01*
X75444838Y-66129833D01*
X75301469Y-66096602D01*
X75030270Y-66073114D01*
X75025835Y-66073358D01*
X75025831Y-66073358D01*
X74762910Y-66087827D01*
X74762903Y-66087828D01*
X74758467Y-66088072D01*
X74717514Y-66096218D01*
X74686680Y-66102351D01*
X74615966Y-66096023D01*
X74559899Y-66052468D01*
X74536280Y-65985516D01*
X74552607Y-65916422D01*
X74573004Y-65889677D01*
X76098911Y-64363770D01*
X76113323Y-64351384D01*
X76124918Y-64342851D01*
X76124923Y-64342846D01*
X76130818Y-64338508D01*
X76135557Y-64332930D01*
X76135560Y-64332927D01*
X76165035Y-64298232D01*
X76171965Y-64290716D01*
X76177660Y-64285021D01*
X76195281Y-64262749D01*
X76198072Y-64259345D01*
X76240591Y-64209297D01*
X76240592Y-64209295D01*
X76245333Y-64203715D01*
X76248661Y-64197199D01*
X76252020Y-64192162D01*
X76255194Y-64187023D01*
X76259734Y-64181284D01*
X76290636Y-64115163D01*
X76292569Y-64111209D01*
X76296239Y-64104021D01*
X76325769Y-64046192D01*
X76327510Y-64039076D01*
X76329604Y-64033446D01*
X76331523Y-64027679D01*
X76334621Y-64021050D01*
X76341534Y-63987818D01*
X76349482Y-63949604D01*
X76350453Y-63945315D01*
X76358621Y-63911934D01*
X76367808Y-63874390D01*
X76368500Y-63863236D01*
X76368536Y-63863238D01*
X76368775Y-63859248D01*
X76369150Y-63855050D01*
X76370640Y-63847885D01*
X76368546Y-63770496D01*
X76368500Y-63767088D01*
X76368500Y-62501589D01*
X76388502Y-62433468D01*
X76393674Y-62426024D01*
X76442573Y-62360778D01*
X76460615Y-62336705D01*
X76511745Y-62200316D01*
X76518500Y-62138134D01*
X76518500Y-61141866D01*
X76511745Y-61079684D01*
X76460615Y-60943295D01*
X76373261Y-60826739D01*
X76316456Y-60784166D01*
X76273941Y-60727307D01*
X76268915Y-60656488D01*
X76296797Y-60600827D01*
X76304329Y-60592135D01*
X76306000Y-60584452D01*
X76306000Y-60579884D01*
X76814000Y-60579884D01*
X76818475Y-60595123D01*
X76819865Y-60596328D01*
X76827548Y-60597999D01*
X77004669Y-60597999D01*
X77011490Y-60597629D01*
X77062352Y-60592105D01*
X77077604Y-60588479D01*
X77198054Y-60543324D01*
X77213649Y-60534786D01*
X77315724Y-60458285D01*
X77328285Y-60445724D01*
X77404786Y-60343649D01*
X77413324Y-60328054D01*
X77458478Y-60207606D01*
X77462105Y-60192351D01*
X77467631Y-60141486D01*
X77468000Y-60134672D01*
X77468000Y-59912115D01*
X77463525Y-59896876D01*
X77462135Y-59895671D01*
X77454452Y-59894000D01*
X76832115Y-59894000D01*
X76816876Y-59898475D01*
X76815671Y-59899865D01*
X76814000Y-59907548D01*
X76814000Y-60579884D01*
X76306000Y-60579884D01*
X76306000Y-59367885D01*
X76814000Y-59367885D01*
X76818475Y-59383124D01*
X76819865Y-59384329D01*
X76827548Y-59386000D01*
X77449884Y-59386000D01*
X77465123Y-59381525D01*
X77466328Y-59380135D01*
X77467999Y-59372452D01*
X77467999Y-59145331D01*
X77467629Y-59138510D01*
X77462105Y-59087648D01*
X77458479Y-59072396D01*
X77413324Y-58951946D01*
X77404786Y-58936351D01*
X77328285Y-58834276D01*
X77315724Y-58821715D01*
X77213649Y-58745214D01*
X77198054Y-58736676D01*
X77077606Y-58691522D01*
X77062351Y-58687895D01*
X77011486Y-58682369D01*
X77004672Y-58682000D01*
X76832115Y-58682000D01*
X76816876Y-58686475D01*
X76815671Y-58687865D01*
X76814000Y-58695548D01*
X76814000Y-59367885D01*
X76306000Y-59367885D01*
X76306000Y-58700116D01*
X76301525Y-58684877D01*
X76300135Y-58683672D01*
X76292452Y-58682001D01*
X76115331Y-58682001D01*
X76108510Y-58682371D01*
X76057648Y-58687895D01*
X76042396Y-58691521D01*
X75921946Y-58736676D01*
X75906351Y-58745214D01*
X75804276Y-58821715D01*
X75791715Y-58834276D01*
X75711139Y-58941789D01*
X75654280Y-58984304D01*
X75583462Y-58989330D01*
X75521168Y-58955270D01*
X75509487Y-58941790D01*
X75505229Y-58936109D01*
X75443673Y-58853975D01*
X75418826Y-58787470D01*
X75418500Y-58778411D01*
X75418500Y-57667673D01*
X75438502Y-57599552D01*
X75492158Y-57553059D01*
X75494744Y-57552040D01*
X75499157Y-57549973D01*
X75506107Y-57547654D01*
X75654031Y-57456116D01*
X75661274Y-57448861D01*
X75663038Y-57447895D01*
X75664941Y-57446387D01*
X75665199Y-57446713D01*
X75723554Y-57414781D01*
X75794375Y-57419782D01*
X75839470Y-57448708D01*
X75842131Y-57451364D01*
X75853540Y-57460375D01*
X75989063Y-57543912D01*
X76002241Y-57550056D01*
X76153766Y-57600315D01*
X76167132Y-57603181D01*
X76259770Y-57612672D01*
X76266185Y-57613000D01*
X76340385Y-57613000D01*
X76355624Y-57608525D01*
X76356829Y-57607135D01*
X76358500Y-57599452D01*
X76358500Y-57594885D01*
X76866500Y-57594885D01*
X76870975Y-57610124D01*
X76872365Y-57611329D01*
X76880048Y-57613000D01*
X76958766Y-57613000D01*
X76965282Y-57612663D01*
X77059132Y-57602925D01*
X77072528Y-57600032D01*
X77223953Y-57549512D01*
X77237115Y-57543347D01*
X77372492Y-57459574D01*
X77383890Y-57450540D01*
X77496363Y-57337871D01*
X77505375Y-57326460D01*
X77588912Y-57190937D01*
X77595056Y-57177759D01*
X77645315Y-57026234D01*
X77648181Y-57012868D01*
X77657672Y-56920230D01*
X77658000Y-56913815D01*
X77658000Y-56902115D01*
X77653525Y-56886876D01*
X77652135Y-56885671D01*
X77644452Y-56884000D01*
X76884615Y-56884000D01*
X76869376Y-56888475D01*
X76868171Y-56889865D01*
X76866500Y-56897548D01*
X76866500Y-57594885D01*
X76358500Y-57594885D01*
X76358500Y-56357885D01*
X76866500Y-56357885D01*
X76870975Y-56373124D01*
X76872365Y-56374329D01*
X76880048Y-56376000D01*
X77639885Y-56376000D01*
X77655124Y-56371525D01*
X77656329Y-56370135D01*
X77658000Y-56362452D01*
X77658000Y-56346234D01*
X77657663Y-56339718D01*
X77647925Y-56245868D01*
X77645032Y-56232472D01*
X77594512Y-56081047D01*
X77588347Y-56067885D01*
X77504574Y-55932508D01*
X77495540Y-55921110D01*
X77382871Y-55808637D01*
X77371460Y-55799625D01*
X77235937Y-55716088D01*
X77222759Y-55709944D01*
X77071234Y-55659685D01*
X77057868Y-55656819D01*
X76965230Y-55647328D01*
X76958815Y-55647000D01*
X76884615Y-55647000D01*
X76869376Y-55651475D01*
X76868171Y-55652865D01*
X76866500Y-55660548D01*
X76866500Y-56357885D01*
X76358500Y-56357885D01*
X76358500Y-55665115D01*
X76354025Y-55649876D01*
X76352635Y-55648671D01*
X76344952Y-55647000D01*
X76266234Y-55647000D01*
X76259718Y-55647337D01*
X76165868Y-55657075D01*
X76152472Y-55659968D01*
X76001047Y-55710488D01*
X75987885Y-55716653D01*
X75852508Y-55800426D01*
X75841106Y-55809464D01*
X75839433Y-55811139D01*
X75838007Y-55811919D01*
X75835373Y-55814007D01*
X75835016Y-55813556D01*
X75777151Y-55845219D01*
X75706331Y-55840216D01*
X75661246Y-55811299D01*
X75658185Y-55808244D01*
X75653003Y-55803071D01*
X75612660Y-55778203D01*
X75525884Y-55724713D01*
X75478390Y-55671940D01*
X75466000Y-55617453D01*
X75466000Y-54926200D01*
X75486002Y-54858079D01*
X75502828Y-54837181D01*
X75530748Y-54809213D01*
X75593031Y-54775135D01*
X75663851Y-54780139D01*
X75708937Y-54809059D01*
X75811812Y-54911754D01*
X75811817Y-54911758D01*
X75816997Y-54916929D01*
X75823227Y-54920769D01*
X75823228Y-54920770D01*
X75953278Y-55000934D01*
X75965080Y-55008209D01*
X76130191Y-55062974D01*
X76137027Y-55063674D01*
X76137030Y-55063675D01*
X76188526Y-55068951D01*
X76232928Y-55073500D01*
X76832072Y-55073500D01*
X76835318Y-55073163D01*
X76835322Y-55073163D01*
X76929235Y-55063419D01*
X76929239Y-55063418D01*
X76936093Y-55062707D01*
X76942629Y-55060526D01*
X76942631Y-55060526D01*
X77091767Y-55010770D01*
X77101107Y-55007654D01*
X77249031Y-54916116D01*
X77265744Y-54899374D01*
X77366758Y-54798184D01*
X77366762Y-54798179D01*
X77371929Y-54793003D01*
X77463209Y-54644920D01*
X77517974Y-54479809D01*
X77528500Y-54377072D01*
X77528500Y-54024500D01*
X77548502Y-53956379D01*
X77602158Y-53909886D01*
X77654500Y-53898500D01*
X77665487Y-53898500D01*
X77671939Y-53897128D01*
X77671944Y-53897128D01*
X77758888Y-53878647D01*
X77852288Y-53858794D01*
X77869850Y-53850975D01*
X78020722Y-53783803D01*
X78020724Y-53783802D01*
X78026752Y-53781118D01*
X78181253Y-53668866D01*
X78269584Y-53570765D01*
X78272364Y-53567677D01*
X78332810Y-53530437D01*
X78403794Y-53531789D01*
X78462778Y-53571302D01*
X78491036Y-53636433D01*
X78492000Y-53651987D01*
X78492000Y-142737389D01*
X78471998Y-142805510D01*
X78455095Y-142826484D01*
X68675673Y-152605905D01*
X68660906Y-152618551D01*
X68641555Y-152632688D01*
X68634798Y-152641478D01*
X68614837Y-152662086D01*
X68513056Y-152745615D01*
X68492519Y-152759337D01*
X68357738Y-152831379D01*
X68334918Y-152840831D01*
X68188666Y-152885196D01*
X68164445Y-152890014D01*
X68012346Y-152904995D01*
X67987654Y-152904995D01*
X67835555Y-152890014D01*
X67811334Y-152885196D01*
X67665082Y-152840831D01*
X67642262Y-152831379D01*
X67590114Y-152803505D01*
X67507475Y-152759334D01*
X67486948Y-152745618D01*
X67390409Y-152666391D01*
X67379384Y-152654730D01*
X67378875Y-152655227D01*
X67372609Y-152648805D01*
X67367312Y-152641555D01*
X67342101Y-152622175D01*
X67329797Y-152611374D01*
X59372183Y-144653762D01*
X57544904Y-142826484D01*
X57510879Y-142764173D01*
X57508000Y-142737390D01*
X57508000Y-38908094D01*
X57528002Y-38839973D01*
X57581658Y-38793480D01*
X57651932Y-38783376D01*
X57716512Y-38812870D01*
G37*
G04 #@! TD.AperFunction*
G04 #@! TA.AperFunction,Conductor*
G36*
X70963850Y-57510138D02*
G01*
X71008937Y-57539059D01*
X71111812Y-57641754D01*
X71111817Y-57641758D01*
X71116997Y-57646929D01*
X71123225Y-57650768D01*
X71123230Y-57650772D01*
X71166617Y-57677516D01*
X71214110Y-57730288D01*
X71226500Y-57784775D01*
X71226500Y-61445406D01*
X71206498Y-61513527D01*
X71189595Y-61534501D01*
X70225008Y-62499087D01*
X70162698Y-62533112D01*
X70091883Y-62528047D01*
X70035047Y-62485500D01*
X70010236Y-62418980D01*
X70017933Y-62365762D01*
X70058478Y-62257609D01*
X70062105Y-62242351D01*
X70067631Y-62191486D01*
X70068000Y-62184672D01*
X70068000Y-61962115D01*
X70063525Y-61946876D01*
X70062135Y-61945671D01*
X70054452Y-61944000D01*
X69432115Y-61944000D01*
X69416876Y-61948475D01*
X69415671Y-61949865D01*
X69414000Y-61957548D01*
X69414000Y-62629884D01*
X69418475Y-62645123D01*
X69419865Y-62646328D01*
X69427548Y-62647999D01*
X69604669Y-62647999D01*
X69611490Y-62647629D01*
X69662352Y-62642105D01*
X69677604Y-62638479D01*
X69785760Y-62597933D01*
X69856568Y-62592750D01*
X69918937Y-62626671D01*
X69953066Y-62688926D01*
X69948119Y-62759750D01*
X69919085Y-62805010D01*
X69824500Y-62899595D01*
X69762188Y-62933621D01*
X69735405Y-62936500D01*
X64063038Y-62936500D01*
X63994917Y-62916498D01*
X63948424Y-62862842D01*
X63938320Y-62792568D01*
X63967814Y-62727988D01*
X63988978Y-62708563D01*
X64023387Y-62683564D01*
X64033307Y-62677048D01*
X64064535Y-62658580D01*
X64064538Y-62658578D01*
X64071362Y-62654542D01*
X64085683Y-62640221D01*
X64100717Y-62627380D01*
X64102431Y-62626135D01*
X64117107Y-62615472D01*
X64145298Y-62581395D01*
X64153288Y-62572616D01*
X64472247Y-62253657D01*
X64480537Y-62246113D01*
X64487018Y-62242000D01*
X64533659Y-62192332D01*
X64536413Y-62189491D01*
X64556134Y-62169770D01*
X64558612Y-62166575D01*
X64566318Y-62157553D01*
X64581364Y-62141531D01*
X64596586Y-62125321D01*
X64602732Y-62114142D01*
X64606346Y-62107568D01*
X64617199Y-62091045D01*
X64624753Y-62081306D01*
X64629613Y-62075041D01*
X64647176Y-62034457D01*
X64652383Y-62023827D01*
X64673695Y-61985060D01*
X64675666Y-61977383D01*
X64675668Y-61977378D01*
X64678732Y-61965442D01*
X64685139Y-61946729D01*
X64692167Y-61930490D01*
X64737580Y-61875917D01*
X64772303Y-61859639D01*
X64793124Y-61853525D01*
X64794329Y-61852135D01*
X64796000Y-61844452D01*
X64796000Y-61839884D01*
X65304000Y-61839884D01*
X65308475Y-61855123D01*
X65309865Y-61856328D01*
X65317548Y-61857999D01*
X65494669Y-61857999D01*
X65501490Y-61857629D01*
X65552352Y-61852105D01*
X65567604Y-61848479D01*
X65688054Y-61803324D01*
X65703649Y-61794786D01*
X65805724Y-61718285D01*
X65818285Y-61705724D01*
X65894786Y-61603649D01*
X65903324Y-61588054D01*
X65948478Y-61467606D01*
X65952105Y-61452351D01*
X65957631Y-61401486D01*
X65958000Y-61394672D01*
X65958000Y-61172115D01*
X65953525Y-61156876D01*
X65952135Y-61155671D01*
X65944452Y-61154000D01*
X65322115Y-61154000D01*
X65306876Y-61158475D01*
X65305671Y-61159865D01*
X65304000Y-61167548D01*
X65304000Y-61839884D01*
X64796000Y-61839884D01*
X64796000Y-60627885D01*
X65304000Y-60627885D01*
X65308475Y-60643124D01*
X65309865Y-60644329D01*
X65317548Y-60646000D01*
X65939884Y-60646000D01*
X65955123Y-60641525D01*
X65956328Y-60640135D01*
X65957999Y-60632452D01*
X65957999Y-60405331D01*
X65957629Y-60398510D01*
X65952105Y-60347648D01*
X65948479Y-60332396D01*
X65903324Y-60211946D01*
X65894786Y-60196351D01*
X65818285Y-60094276D01*
X65805724Y-60081715D01*
X65703649Y-60005214D01*
X65688054Y-59996676D01*
X65567606Y-59951522D01*
X65552351Y-59947895D01*
X65501486Y-59942369D01*
X65494672Y-59942000D01*
X65322115Y-59942000D01*
X65306876Y-59946475D01*
X65305671Y-59947865D01*
X65304000Y-59955548D01*
X65304000Y-60627885D01*
X64796000Y-60627885D01*
X64796000Y-59960116D01*
X64788528Y-59934669D01*
X64761181Y-59892115D01*
X64761181Y-59821118D01*
X64799566Y-59761393D01*
X64806512Y-59755792D01*
X64809031Y-59753904D01*
X64863261Y-59713261D01*
X64950615Y-59596705D01*
X64950861Y-59596049D01*
X64998175Y-59548843D01*
X65058433Y-59533500D01*
X65543733Y-59533500D01*
X65554916Y-59534027D01*
X65562409Y-59535702D01*
X65570335Y-59535453D01*
X65570336Y-59535453D01*
X65630486Y-59533562D01*
X65634445Y-59533500D01*
X65662356Y-59533500D01*
X65666291Y-59533003D01*
X65666356Y-59532995D01*
X65678193Y-59532062D01*
X65710451Y-59531048D01*
X65714470Y-59530922D01*
X65722389Y-59530673D01*
X65741843Y-59525021D01*
X65761200Y-59521013D01*
X65773430Y-59519468D01*
X65773431Y-59519468D01*
X65781297Y-59518474D01*
X65788668Y-59515555D01*
X65788670Y-59515555D01*
X65822412Y-59502196D01*
X65833642Y-59498351D01*
X65868483Y-59488229D01*
X65868484Y-59488229D01*
X65876093Y-59486018D01*
X65882912Y-59481985D01*
X65882917Y-59481983D01*
X65893528Y-59475707D01*
X65911276Y-59467012D01*
X65930117Y-59459552D01*
X65965887Y-59433564D01*
X65975807Y-59427048D01*
X66007035Y-59408580D01*
X66007038Y-59408578D01*
X66013862Y-59404542D01*
X66028183Y-59390221D01*
X66043217Y-59377380D01*
X66053194Y-59370131D01*
X66059607Y-59365472D01*
X66087798Y-59331395D01*
X66095788Y-59322616D01*
X66411405Y-59006999D01*
X66473717Y-58972973D01*
X66544532Y-58978038D01*
X66601368Y-59020585D01*
X66626179Y-59087105D01*
X66626500Y-59096094D01*
X66626500Y-60716461D01*
X66606498Y-60784582D01*
X66576065Y-60817287D01*
X66512221Y-60865136D01*
X66496739Y-60876739D01*
X66409385Y-60993295D01*
X66358255Y-61129684D01*
X66351500Y-61191866D01*
X66351500Y-62188134D01*
X66358255Y-62250316D01*
X66409385Y-62386705D01*
X66496739Y-62503261D01*
X66613295Y-62590615D01*
X66749684Y-62641745D01*
X66811866Y-62648500D01*
X67708134Y-62648500D01*
X67770316Y-62641745D01*
X67906705Y-62590615D01*
X68023261Y-62503261D01*
X68109487Y-62388210D01*
X68166347Y-62345696D01*
X68237165Y-62340671D01*
X68299458Y-62374730D01*
X68311139Y-62388211D01*
X68391715Y-62495724D01*
X68404276Y-62508285D01*
X68506351Y-62584786D01*
X68521946Y-62593324D01*
X68642394Y-62638478D01*
X68657649Y-62642105D01*
X68708514Y-62647631D01*
X68715328Y-62648000D01*
X68887885Y-62648000D01*
X68903124Y-62643525D01*
X68904329Y-62642135D01*
X68906000Y-62634452D01*
X68906000Y-61417885D01*
X69414000Y-61417885D01*
X69418475Y-61433124D01*
X69419865Y-61434329D01*
X69427548Y-61436000D01*
X70049884Y-61436000D01*
X70065123Y-61431525D01*
X70066328Y-61430135D01*
X70067999Y-61422452D01*
X70067999Y-61195331D01*
X70067629Y-61188510D01*
X70062105Y-61137648D01*
X70058479Y-61122396D01*
X70013324Y-61001946D01*
X70004786Y-60986351D01*
X69928285Y-60884276D01*
X69915724Y-60871715D01*
X69813649Y-60795214D01*
X69798054Y-60786676D01*
X69677606Y-60741522D01*
X69662351Y-60737895D01*
X69611486Y-60732369D01*
X69604672Y-60732000D01*
X69432115Y-60732000D01*
X69416876Y-60736475D01*
X69415671Y-60737865D01*
X69414000Y-60745548D01*
X69414000Y-61417885D01*
X68906000Y-61417885D01*
X68906000Y-60750116D01*
X68898528Y-60724669D01*
X68871181Y-60682115D01*
X68871181Y-60611118D01*
X68909566Y-60551393D01*
X68916512Y-60545792D01*
X68966081Y-60508642D01*
X68973261Y-60503261D01*
X69060615Y-60386705D01*
X69111745Y-60250316D01*
X69118500Y-60188134D01*
X69118500Y-59191866D01*
X69111745Y-59129684D01*
X69060615Y-58993295D01*
X68984542Y-58891791D01*
X68959694Y-58825285D01*
X68974747Y-58755902D01*
X68996270Y-58727134D01*
X69883002Y-57840403D01*
X69945312Y-57806379D01*
X69972095Y-57803500D01*
X70307072Y-57803500D01*
X70310318Y-57803163D01*
X70310322Y-57803163D01*
X70404235Y-57793419D01*
X70404239Y-57793418D01*
X70411093Y-57792707D01*
X70417629Y-57790526D01*
X70417631Y-57790526D01*
X70569159Y-57739972D01*
X70576107Y-57737654D01*
X70724031Y-57646116D01*
X70729204Y-57640934D01*
X70830747Y-57539214D01*
X70893030Y-57505135D01*
X70963850Y-57510138D01*
G37*
G04 #@! TD.AperFunction*
G04 #@! TA.AperFunction,Conductor*
G36*
X66428526Y-47428501D02*
G01*
X66449500Y-47445404D01*
X66454595Y-47450499D01*
X66488621Y-47512811D01*
X66491500Y-47539594D01*
X66491500Y-48948134D01*
X66498255Y-49010316D01*
X66501027Y-49017712D01*
X66501029Y-49017718D01*
X66531271Y-49098388D01*
X66536454Y-49169195D01*
X66502384Y-49231712D01*
X65929366Y-49804729D01*
X65367747Y-50366348D01*
X65359461Y-50373888D01*
X65352982Y-50378000D01*
X65347557Y-50383777D01*
X65306357Y-50427651D01*
X65303602Y-50430493D01*
X65283865Y-50450230D01*
X65281385Y-50453427D01*
X65273682Y-50462447D01*
X65243414Y-50494679D01*
X65239595Y-50501625D01*
X65239593Y-50501628D01*
X65233652Y-50512434D01*
X65222801Y-50528953D01*
X65210386Y-50544959D01*
X65207241Y-50552228D01*
X65207238Y-50552232D01*
X65192826Y-50585537D01*
X65187609Y-50596187D01*
X65166305Y-50634940D01*
X65164334Y-50642615D01*
X65164334Y-50642616D01*
X65161267Y-50654562D01*
X65154863Y-50673266D01*
X65146819Y-50691855D01*
X65145580Y-50699678D01*
X65145577Y-50699688D01*
X65139901Y-50735524D01*
X65137495Y-50747144D01*
X65131974Y-50768648D01*
X65126500Y-50789970D01*
X65126500Y-50810224D01*
X65124949Y-50829934D01*
X65121780Y-50849943D01*
X65122526Y-50857835D01*
X65122277Y-50865758D01*
X65120310Y-50865696D01*
X65108798Y-50925130D01*
X65067414Y-50969837D01*
X65067929Y-50970487D01*
X65063736Y-50973810D01*
X65063157Y-50974436D01*
X65055969Y-50978884D01*
X65050796Y-50984066D01*
X64938242Y-51096816D01*
X64938238Y-51096821D01*
X64933071Y-51101997D01*
X64929231Y-51108227D01*
X64929230Y-51108228D01*
X64846364Y-51242662D01*
X64841791Y-51250080D01*
X64787026Y-51415191D01*
X64776500Y-51517928D01*
X64776500Y-52217072D01*
X64776837Y-52220318D01*
X64776837Y-52220322D01*
X64786482Y-52313276D01*
X64787293Y-52321093D01*
X64789474Y-52327629D01*
X64789474Y-52327631D01*
X64800807Y-52361600D01*
X64842346Y-52486107D01*
X64933884Y-52634031D01*
X64939065Y-52639203D01*
X64941139Y-52641273D01*
X64942105Y-52643038D01*
X64943613Y-52644941D01*
X64943287Y-52645199D01*
X64975219Y-52703554D01*
X64970218Y-52774375D01*
X64941292Y-52819470D01*
X64938636Y-52822131D01*
X64929625Y-52833540D01*
X64846088Y-52969063D01*
X64839944Y-52982241D01*
X64789685Y-53133766D01*
X64786819Y-53147132D01*
X64777328Y-53239770D01*
X64777000Y-53246185D01*
X64777000Y-53320385D01*
X64781475Y-53335624D01*
X64782865Y-53336829D01*
X64790548Y-53338500D01*
X66724885Y-53338500D01*
X66740124Y-53334025D01*
X66741329Y-53332635D01*
X66743000Y-53324952D01*
X66743000Y-53246234D01*
X66742663Y-53239718D01*
X66732925Y-53145868D01*
X66730032Y-53132472D01*
X66679512Y-52981047D01*
X66673347Y-52967885D01*
X66589574Y-52832508D01*
X66580536Y-52821106D01*
X66578861Y-52819433D01*
X66578081Y-52818007D01*
X66575993Y-52815373D01*
X66576444Y-52815016D01*
X66544781Y-52757151D01*
X66549784Y-52686331D01*
X66578701Y-52641246D01*
X66581756Y-52638185D01*
X66586929Y-52633003D01*
X66594506Y-52620711D01*
X66674369Y-52491150D01*
X66674370Y-52491148D01*
X66678209Y-52484920D01*
X66710907Y-52386339D01*
X66751338Y-52327979D01*
X66816902Y-52300742D01*
X66886784Y-52313276D01*
X66938795Y-52361600D01*
X66956500Y-52426006D01*
X66956500Y-52452072D01*
X66956837Y-52455318D01*
X66956837Y-52455322D01*
X66964055Y-52524883D01*
X66967293Y-52556093D01*
X66969474Y-52562629D01*
X66969474Y-52562631D01*
X66988095Y-52618444D01*
X67022346Y-52721107D01*
X67113884Y-52869031D01*
X67119066Y-52874204D01*
X67231816Y-52986758D01*
X67231821Y-52986762D01*
X67236997Y-52991929D01*
X67243227Y-52995769D01*
X67243228Y-52995770D01*
X67354883Y-53064595D01*
X67385080Y-53083209D01*
X67550191Y-53137974D01*
X67557027Y-53138674D01*
X67557030Y-53138675D01*
X67608526Y-53143951D01*
X67652928Y-53148500D01*
X67818474Y-53148500D01*
X67886595Y-53168502D01*
X67933088Y-53222158D01*
X67943192Y-53292432D01*
X67919301Y-53350063D01*
X67914773Y-53356105D01*
X67914771Y-53356108D01*
X67909385Y-53363295D01*
X67858255Y-53499684D01*
X67851500Y-53561866D01*
X67851500Y-54960405D01*
X67831498Y-55028526D01*
X67814595Y-55049500D01*
X67744500Y-55119595D01*
X67682188Y-55153621D01*
X67655405Y-55156500D01*
X65348768Y-55156500D01*
X65337585Y-55155973D01*
X65330092Y-55154298D01*
X65322166Y-55154547D01*
X65322165Y-55154547D01*
X65262002Y-55156438D01*
X65258044Y-55156500D01*
X65230144Y-55156500D01*
X65226154Y-55157004D01*
X65214320Y-55157936D01*
X65170111Y-55159326D01*
X65162495Y-55161539D01*
X65162493Y-55161539D01*
X65150652Y-55164979D01*
X65131293Y-55168988D01*
X65129983Y-55169154D01*
X65111203Y-55171526D01*
X65103837Y-55174442D01*
X65103831Y-55174444D01*
X65070098Y-55187800D01*
X65058868Y-55191645D01*
X65024017Y-55201770D01*
X65016407Y-55203981D01*
X65009584Y-55208016D01*
X64998966Y-55214295D01*
X64981213Y-55222992D01*
X64973568Y-55226019D01*
X64962383Y-55230448D01*
X64955968Y-55235109D01*
X64926612Y-55256437D01*
X64916695Y-55262951D01*
X64878638Y-55285458D01*
X64864317Y-55299779D01*
X64849284Y-55312619D01*
X64832893Y-55324528D01*
X64827842Y-55330633D01*
X64827837Y-55330638D01*
X64804701Y-55358604D01*
X64796713Y-55367382D01*
X64488095Y-55676000D01*
X64425783Y-55710026D01*
X64354968Y-55704961D01*
X64298132Y-55662414D01*
X64273321Y-55595894D01*
X64273000Y-55586905D01*
X64273000Y-55396234D01*
X64272663Y-55389718D01*
X64262925Y-55295868D01*
X64260032Y-55282472D01*
X64209512Y-55131047D01*
X64203347Y-55117885D01*
X64119574Y-54982508D01*
X64110536Y-54971106D01*
X64108861Y-54969433D01*
X64108081Y-54968007D01*
X64105993Y-54965373D01*
X64106444Y-54965016D01*
X64074781Y-54907151D01*
X64079784Y-54836331D01*
X64108701Y-54791246D01*
X64111756Y-54788185D01*
X64116929Y-54783003D01*
X64208209Y-54634920D01*
X64262974Y-54469809D01*
X64273500Y-54367072D01*
X64273500Y-53938766D01*
X64777000Y-53938766D01*
X64777337Y-53945282D01*
X64787075Y-54039132D01*
X64789968Y-54052528D01*
X64840488Y-54203953D01*
X64846653Y-54217115D01*
X64930426Y-54352492D01*
X64939460Y-54363890D01*
X65052129Y-54476363D01*
X65063540Y-54485375D01*
X65199063Y-54568912D01*
X65212241Y-54575056D01*
X65363766Y-54625315D01*
X65377132Y-54628181D01*
X65469770Y-54637672D01*
X65476185Y-54638000D01*
X65487885Y-54638000D01*
X65503124Y-54633525D01*
X65504329Y-54632135D01*
X65506000Y-54624452D01*
X65506000Y-54619885D01*
X66014000Y-54619885D01*
X66018475Y-54635124D01*
X66019865Y-54636329D01*
X66027548Y-54638000D01*
X66043766Y-54638000D01*
X66050282Y-54637663D01*
X66144132Y-54627925D01*
X66157528Y-54625032D01*
X66308953Y-54574512D01*
X66322115Y-54568347D01*
X66457492Y-54484574D01*
X66468890Y-54475540D01*
X66581363Y-54362871D01*
X66590375Y-54351460D01*
X66673912Y-54215937D01*
X66680056Y-54202759D01*
X66730315Y-54051234D01*
X66733181Y-54037868D01*
X66742672Y-53945230D01*
X66743000Y-53938815D01*
X66743000Y-53864615D01*
X66738525Y-53849376D01*
X66737135Y-53848171D01*
X66729452Y-53846500D01*
X66032115Y-53846500D01*
X66016876Y-53850975D01*
X66015671Y-53852365D01*
X66014000Y-53860048D01*
X66014000Y-54619885D01*
X65506000Y-54619885D01*
X65506000Y-53864615D01*
X65501525Y-53849376D01*
X65500135Y-53848171D01*
X65492452Y-53846500D01*
X64795115Y-53846500D01*
X64779876Y-53850975D01*
X64778671Y-53852365D01*
X64777000Y-53860048D01*
X64777000Y-53938766D01*
X64273500Y-53938766D01*
X64273500Y-53667928D01*
X64271391Y-53647603D01*
X64263419Y-53570765D01*
X64263418Y-53570761D01*
X64262707Y-53563907D01*
X64257865Y-53549392D01*
X64209972Y-53405841D01*
X64207654Y-53398893D01*
X64116116Y-53250969D01*
X64106488Y-53241358D01*
X63998184Y-53133242D01*
X63998179Y-53133238D01*
X63993003Y-53128071D01*
X63958555Y-53106837D01*
X63851150Y-53040631D01*
X63851148Y-53040630D01*
X63844920Y-53036791D01*
X63679809Y-52982026D01*
X63672973Y-52981326D01*
X63672970Y-52981325D01*
X63621474Y-52976049D01*
X63577072Y-52971500D01*
X63002928Y-52971500D01*
X62999682Y-52971837D01*
X62999678Y-52971837D01*
X62905765Y-52981581D01*
X62905761Y-52981582D01*
X62898907Y-52982293D01*
X62892371Y-52984474D01*
X62892369Y-52984474D01*
X62875806Y-52990000D01*
X62733893Y-53037346D01*
X62585969Y-53128884D01*
X62580796Y-53134066D01*
X62468242Y-53246816D01*
X62468238Y-53246821D01*
X62463071Y-53251997D01*
X62459231Y-53258227D01*
X62459230Y-53258228D01*
X62376015Y-53393228D01*
X62371791Y-53400080D01*
X62346620Y-53475969D01*
X62335354Y-53509934D01*
X62294923Y-53568294D01*
X62229359Y-53595531D01*
X62159478Y-53582998D01*
X62108617Y-53536570D01*
X62074970Y-53482197D01*
X62071116Y-53475969D01*
X62056062Y-53460941D01*
X61953184Y-53358242D01*
X61953179Y-53358238D01*
X61948003Y-53353071D01*
X61908500Y-53328721D01*
X61806150Y-53265631D01*
X61806148Y-53265630D01*
X61799920Y-53261791D01*
X61634809Y-53207026D01*
X61627973Y-53206326D01*
X61627970Y-53206325D01*
X61576474Y-53201049D01*
X61532072Y-53196500D01*
X60932928Y-53196500D01*
X60929682Y-53196837D01*
X60929678Y-53196837D01*
X60835765Y-53206581D01*
X60835761Y-53206582D01*
X60828907Y-53207293D01*
X60822371Y-53209474D01*
X60822369Y-53209474D01*
X60710673Y-53246739D01*
X60663893Y-53262346D01*
X60515969Y-53353884D01*
X60510796Y-53359066D01*
X60409253Y-53460786D01*
X60346970Y-53494865D01*
X60276150Y-53489862D01*
X60231063Y-53460941D01*
X60123004Y-53353071D01*
X60124718Y-53351354D01*
X60090345Y-53302871D01*
X60083500Y-53261907D01*
X60083500Y-52835036D01*
X60103502Y-52766915D01*
X60157158Y-52720422D01*
X60174002Y-52714140D01*
X60193124Y-52708525D01*
X60194329Y-52707135D01*
X60196000Y-52699452D01*
X60196000Y-52694885D01*
X60704000Y-52694885D01*
X60708475Y-52710124D01*
X60709865Y-52711329D01*
X60717548Y-52713000D01*
X60751266Y-52713000D01*
X60757782Y-52712663D01*
X60849021Y-52703196D01*
X60862417Y-52700303D01*
X61009687Y-52651170D01*
X61022866Y-52644996D01*
X61154514Y-52563530D01*
X61165915Y-52554494D01*
X61275298Y-52444920D01*
X61284310Y-52433509D01*
X61365553Y-52301709D01*
X61371697Y-52288532D01*
X61420579Y-52141157D01*
X61423445Y-52127790D01*
X61432614Y-52038300D01*
X61428525Y-52024376D01*
X61427135Y-52023171D01*
X61419452Y-52021500D01*
X60722115Y-52021500D01*
X60706876Y-52025975D01*
X60705671Y-52027365D01*
X60704000Y-52035048D01*
X60704000Y-52694885D01*
X60196000Y-52694885D01*
X60196000Y-51639500D01*
X60216002Y-51571379D01*
X60269658Y-51524886D01*
X60322000Y-51513500D01*
X61414885Y-51513500D01*
X61430124Y-51509025D01*
X61431329Y-51507635D01*
X61432842Y-51500679D01*
X61432663Y-51497218D01*
X61423196Y-51405979D01*
X61420303Y-51392583D01*
X61371170Y-51245313D01*
X61364996Y-51232134D01*
X61283530Y-51100486D01*
X61274494Y-51089085D01*
X61254842Y-51069467D01*
X61220763Y-51007184D01*
X61225766Y-50936364D01*
X61254686Y-50891277D01*
X61275692Y-50870234D01*
X61280864Y-50865053D01*
X61369849Y-50720692D01*
X61388598Y-50664166D01*
X61409084Y-50602405D01*
X61449515Y-50544045D01*
X61515080Y-50516809D01*
X61584961Y-50529343D01*
X61635822Y-50575771D01*
X61720427Y-50712492D01*
X61729460Y-50723890D01*
X61842129Y-50836363D01*
X61853540Y-50845375D01*
X61989063Y-50928912D01*
X62002241Y-50935056D01*
X62153766Y-50985315D01*
X62167132Y-50988181D01*
X62259770Y-50997672D01*
X62266185Y-50998000D01*
X62277885Y-50998000D01*
X62293124Y-50993525D01*
X62294329Y-50992135D01*
X62296000Y-50984452D01*
X62296000Y-50979885D01*
X62804000Y-50979885D01*
X62808475Y-50995124D01*
X62809865Y-50996329D01*
X62817548Y-50998000D01*
X62833766Y-50998000D01*
X62840282Y-50997663D01*
X62934132Y-50987925D01*
X62947528Y-50985032D01*
X63098953Y-50934512D01*
X63112115Y-50928347D01*
X63247492Y-50844574D01*
X63258890Y-50835540D01*
X63371363Y-50722871D01*
X63380375Y-50711460D01*
X63463912Y-50575937D01*
X63470056Y-50562759D01*
X63520315Y-50411234D01*
X63523181Y-50397868D01*
X63532672Y-50305230D01*
X63533000Y-50298815D01*
X63533000Y-50224615D01*
X63528525Y-50209376D01*
X63527135Y-50208171D01*
X63519452Y-50206500D01*
X62822115Y-50206500D01*
X62806876Y-50210975D01*
X62805671Y-50212365D01*
X62804000Y-50220048D01*
X62804000Y-50979885D01*
X62296000Y-50979885D01*
X62296000Y-49824500D01*
X62316002Y-49756379D01*
X62369658Y-49709886D01*
X62422000Y-49698500D01*
X63514885Y-49698500D01*
X63530124Y-49694025D01*
X63531329Y-49692635D01*
X63533000Y-49684952D01*
X63533000Y-49606234D01*
X63532663Y-49599718D01*
X63522925Y-49505868D01*
X63520032Y-49492472D01*
X63469512Y-49341047D01*
X63463347Y-49327885D01*
X63379574Y-49192508D01*
X63370536Y-49181106D01*
X63368861Y-49179433D01*
X63368081Y-49178007D01*
X63365993Y-49175373D01*
X63366444Y-49175016D01*
X63334781Y-49117151D01*
X63339784Y-49046331D01*
X63368701Y-49001246D01*
X63371756Y-48998185D01*
X63376929Y-48993003D01*
X63412894Y-48934658D01*
X63421384Y-48920884D01*
X63474156Y-48873391D01*
X63528644Y-48861000D01*
X63868981Y-48861000D01*
X63937102Y-48881002D01*
X63983595Y-48934658D01*
X63994244Y-48973393D01*
X63997401Y-49002460D01*
X63997402Y-49002464D01*
X63998255Y-49010316D01*
X64049385Y-49146705D01*
X64136739Y-49263261D01*
X64253295Y-49350615D01*
X64389684Y-49401745D01*
X64451866Y-49408500D01*
X65548134Y-49408500D01*
X65610316Y-49401745D01*
X65746705Y-49350615D01*
X65863261Y-49263261D01*
X65950615Y-49146705D01*
X66001745Y-49010316D01*
X66008500Y-48948134D01*
X66008500Y-47534499D01*
X66028502Y-47466378D01*
X66082158Y-47419885D01*
X66134500Y-47408499D01*
X66360405Y-47408499D01*
X66428526Y-47428501D01*
G37*
G04 #@! TD.AperFunction*
G04 #@! TA.AperFunction,Conductor*
G36*
X71019601Y-50773651D02*
G01*
X71076473Y-50816148D01*
X71101342Y-50882647D01*
X71100645Y-50906405D01*
X71102956Y-50921222D01*
X71116113Y-50925000D01*
X71815500Y-50925000D01*
X71883621Y-50945002D01*
X71930114Y-50998658D01*
X71941500Y-51051000D01*
X71941500Y-51239240D01*
X71922120Y-51305241D01*
X71946896Y-51343792D01*
X71947692Y-51347020D01*
X71948009Y-51350473D01*
X71997481Y-51508336D01*
X72001416Y-51514833D01*
X72001417Y-51514836D01*
X72031776Y-51564964D01*
X72050000Y-51630235D01*
X72050000Y-51764884D01*
X72054475Y-51780123D01*
X72055865Y-51781328D01*
X72063548Y-51782999D01*
X72097411Y-51782999D01*
X72105625Y-51782460D01*
X72160624Y-51775221D01*
X72230773Y-51786162D01*
X72242338Y-51792366D01*
X72277083Y-51813408D01*
X72341664Y-51852519D01*
X72350254Y-51855211D01*
X72493144Y-51899991D01*
X72493147Y-51899992D01*
X72499527Y-51901991D01*
X72570366Y-51908500D01*
X73029634Y-51908500D01*
X73100473Y-51901991D01*
X73106853Y-51899992D01*
X73106856Y-51899991D01*
X73251090Y-51854790D01*
X73251092Y-51854789D01*
X73258336Y-51852519D01*
X73264828Y-51848587D01*
X73264831Y-51848586D01*
X73322918Y-51813408D01*
X73391548Y-51795230D01*
X73445489Y-51808968D01*
X73458808Y-51815769D01*
X73465913Y-51817508D01*
X73465917Y-51817509D01*
X73548238Y-51837652D01*
X73630610Y-51857808D01*
X73636212Y-51858156D01*
X73636215Y-51858156D01*
X73639825Y-51858380D01*
X73639835Y-51858380D01*
X73641764Y-51858500D01*
X73982930Y-51858500D01*
X74001880Y-51859933D01*
X74016115Y-51862099D01*
X74016119Y-51862099D01*
X74023349Y-51863199D01*
X74030641Y-51862606D01*
X74030644Y-51862606D01*
X74076018Y-51858915D01*
X74086233Y-51858500D01*
X74094293Y-51858500D01*
X74111680Y-51856473D01*
X74122507Y-51855211D01*
X74126882Y-51854778D01*
X74192339Y-51849454D01*
X74192342Y-51849453D01*
X74199637Y-51848860D01*
X74206601Y-51846604D01*
X74212560Y-51845413D01*
X74218415Y-51844029D01*
X74225681Y-51843182D01*
X74294327Y-51818265D01*
X74298455Y-51816848D01*
X74360936Y-51796607D01*
X74360938Y-51796606D01*
X74367899Y-51794351D01*
X74374154Y-51790555D01*
X74379628Y-51788049D01*
X74385058Y-51785330D01*
X74391937Y-51782833D01*
X74403547Y-51775221D01*
X74452976Y-51742814D01*
X74456680Y-51740477D01*
X74519107Y-51702595D01*
X74527484Y-51695197D01*
X74527508Y-51695224D01*
X74530500Y-51692571D01*
X74533733Y-51689868D01*
X74539852Y-51685856D01*
X74593128Y-51629617D01*
X74595506Y-51627175D01*
X74820302Y-51402379D01*
X74882614Y-51368353D01*
X74953429Y-51373418D01*
X75010265Y-51415965D01*
X75035076Y-51482485D01*
X75035397Y-51491474D01*
X75035397Y-51579732D01*
X75015395Y-51647853D01*
X74998492Y-51668827D01*
X74218589Y-52448730D01*
X74204177Y-52461116D01*
X74192582Y-52469649D01*
X74192577Y-52469654D01*
X74186682Y-52473992D01*
X74181943Y-52479570D01*
X74181940Y-52479573D01*
X74152465Y-52514268D01*
X74145535Y-52521784D01*
X74139840Y-52527479D01*
X74137560Y-52530361D01*
X74122219Y-52549751D01*
X74119428Y-52553155D01*
X74111378Y-52562631D01*
X74072167Y-52608785D01*
X74068839Y-52615301D01*
X74065472Y-52620350D01*
X74062305Y-52625479D01*
X74057766Y-52631216D01*
X74026845Y-52697375D01*
X74024942Y-52701269D01*
X73991731Y-52766308D01*
X73989992Y-52773416D01*
X73987893Y-52779059D01*
X73985976Y-52784822D01*
X73982878Y-52791450D01*
X73981388Y-52798612D01*
X73981388Y-52798613D01*
X73968014Y-52862912D01*
X73967044Y-52867196D01*
X73949692Y-52938110D01*
X73949000Y-52949264D01*
X73948964Y-52949262D01*
X73948725Y-52953255D01*
X73948351Y-52957447D01*
X73946860Y-52964615D01*
X73947058Y-52971932D01*
X73948954Y-53042021D01*
X73949000Y-53045428D01*
X73949000Y-53253800D01*
X73928998Y-53321921D01*
X73912175Y-53342816D01*
X73868071Y-53386997D01*
X73864231Y-53393227D01*
X73864230Y-53393228D01*
X73848463Y-53418807D01*
X73795691Y-53466300D01*
X73725619Y-53477724D01*
X73660495Y-53449450D01*
X73623221Y-53396921D01*
X73613767Y-53371703D01*
X73610615Y-53363295D01*
X73523261Y-53246739D01*
X73406705Y-53159385D01*
X73270316Y-53108255D01*
X73208134Y-53101500D01*
X72099595Y-53101500D01*
X72031474Y-53081498D01*
X72010500Y-53064595D01*
X71080405Y-52134500D01*
X71046379Y-52072188D01*
X71043500Y-52045405D01*
X71043500Y-51695598D01*
X71063502Y-51627477D01*
X71117158Y-51580984D01*
X71187432Y-51570880D01*
X71252012Y-51600374D01*
X71258598Y-51606505D01*
X71269335Y-51617243D01*
X71380630Y-51702642D01*
X71394811Y-51710829D01*
X71524414Y-51764513D01*
X71540231Y-51768751D01*
X71644378Y-51782462D01*
X71652587Y-51783000D01*
X71681885Y-51783000D01*
X71697124Y-51778525D01*
X71698329Y-51777135D01*
X71700000Y-51769452D01*
X71700000Y-51379290D01*
X71719380Y-51313289D01*
X71697997Y-51280018D01*
X71694135Y-51276671D01*
X71686452Y-51275000D01*
X71116496Y-51275000D01*
X71076579Y-51286721D01*
X71058377Y-51298419D01*
X70987381Y-51298421D01*
X70927654Y-51260039D01*
X70915732Y-51243828D01*
X70889968Y-51202194D01*
X70886116Y-51195969D01*
X70778859Y-51088899D01*
X70744780Y-51026618D01*
X70749783Y-50955798D01*
X70778704Y-50910709D01*
X70886498Y-50802727D01*
X70948781Y-50768648D01*
X71019601Y-50773651D01*
G37*
G04 #@! TD.AperFunction*
G04 #@! TA.AperFunction,Conductor*
G36*
X78434121Y-30620002D02*
G01*
X78480614Y-30673658D01*
X78492000Y-30726000D01*
X78492000Y-52328013D01*
X78471998Y-52396134D01*
X78418342Y-52442627D01*
X78348068Y-52452731D01*
X78283488Y-52423237D01*
X78272364Y-52412323D01*
X78185675Y-52316045D01*
X78185674Y-52316044D01*
X78181253Y-52311134D01*
X78047293Y-52213806D01*
X78032094Y-52202763D01*
X78032093Y-52202762D01*
X78026752Y-52198882D01*
X78020724Y-52196198D01*
X78020722Y-52196197D01*
X77858319Y-52123891D01*
X77858318Y-52123891D01*
X77852288Y-52121206D01*
X77741208Y-52097595D01*
X77671944Y-52082872D01*
X77671939Y-52082872D01*
X77665487Y-52081500D01*
X77474513Y-52081500D01*
X77468061Y-52082872D01*
X77468056Y-52082872D01*
X77398792Y-52097595D01*
X77287712Y-52121206D01*
X77281682Y-52123891D01*
X77281681Y-52123891D01*
X77119278Y-52196197D01*
X77119276Y-52196198D01*
X77113248Y-52198882D01*
X77107907Y-52202762D01*
X77107906Y-52202763D01*
X77092707Y-52213806D01*
X76958747Y-52311134D01*
X76830960Y-52453056D01*
X76804417Y-52499030D01*
X76741050Y-52608785D01*
X76735473Y-52618444D01*
X76676458Y-52800072D01*
X76675768Y-52806633D01*
X76675768Y-52806635D01*
X76667376Y-52886482D01*
X76660246Y-52954326D01*
X76659093Y-52965292D01*
X76632080Y-53030949D01*
X76622877Y-53041219D01*
X76594498Y-53069597D01*
X76532185Y-53103621D01*
X76505404Y-53106500D01*
X76232928Y-53106500D01*
X76229682Y-53106837D01*
X76229678Y-53106837D01*
X76135765Y-53116581D01*
X76135761Y-53116582D01*
X76128907Y-53117293D01*
X76122371Y-53119474D01*
X76122369Y-53119474D01*
X76066918Y-53137974D01*
X75984949Y-53165321D01*
X75914001Y-53167905D01*
X75852917Y-53131722D01*
X75821092Y-53068257D01*
X75828631Y-52997662D01*
X75855979Y-52956702D01*
X76282808Y-52529873D01*
X76297220Y-52517487D01*
X76308815Y-52508954D01*
X76308820Y-52508949D01*
X76314715Y-52504611D01*
X76319454Y-52499033D01*
X76319457Y-52499030D01*
X76348932Y-52464335D01*
X76355862Y-52456819D01*
X76361557Y-52451124D01*
X76379178Y-52428852D01*
X76381969Y-52425448D01*
X76424488Y-52375400D01*
X76424489Y-52375398D01*
X76429230Y-52369818D01*
X76432558Y-52363302D01*
X76435925Y-52358253D01*
X76439092Y-52353124D01*
X76443631Y-52347387D01*
X76474552Y-52281228D01*
X76476458Y-52277328D01*
X76509666Y-52212295D01*
X76511405Y-52205187D01*
X76513504Y-52199544D01*
X76515421Y-52193781D01*
X76518519Y-52187153D01*
X76533384Y-52115686D01*
X76534354Y-52111402D01*
X76551705Y-52040493D01*
X76552397Y-52029339D01*
X76552433Y-52029341D01*
X76552672Y-52025348D01*
X76553046Y-52021156D01*
X76554537Y-52013988D01*
X76552443Y-51936582D01*
X76552397Y-51933175D01*
X76552397Y-49444055D01*
X76552896Y-49432855D01*
X76553048Y-49431151D01*
X76554538Y-49423988D01*
X76552443Y-49346561D01*
X76552397Y-49343153D01*
X76552397Y-45634943D01*
X76572399Y-45566822D01*
X76626055Y-45520329D01*
X76668729Y-45509314D01*
X76709951Y-45506142D01*
X76809830Y-45498457D01*
X76809834Y-45498456D01*
X76815972Y-45497984D01*
X77006463Y-45444798D01*
X77011967Y-45442018D01*
X77011969Y-45442017D01*
X77177495Y-45358404D01*
X77177497Y-45358403D01*
X77182996Y-45355625D01*
X77338847Y-45233861D01*
X77468078Y-45084145D01*
X77565769Y-44912179D01*
X77628197Y-44724513D01*
X77652985Y-44528295D01*
X77653380Y-44500000D01*
X77634080Y-44303167D01*
X77627821Y-44282434D01*
X77602223Y-44197651D01*
X77576916Y-44113831D01*
X77484066Y-43939204D01*
X77383911Y-43816402D01*
X77362960Y-43790713D01*
X77362957Y-43790710D01*
X77359065Y-43785938D01*
X77344145Y-43773595D01*
X77211425Y-43663799D01*
X77211421Y-43663797D01*
X77206675Y-43659870D01*
X77032701Y-43565802D01*
X76843768Y-43507318D01*
X76837643Y-43506674D01*
X76837642Y-43506674D01*
X76653204Y-43487289D01*
X76653202Y-43487289D01*
X76647075Y-43486645D01*
X76555052Y-43495020D01*
X76485400Y-43481275D01*
X76454538Y-43458634D01*
X76247122Y-43251218D01*
X76213096Y-43188906D01*
X76210907Y-43175293D01*
X76199109Y-43063035D01*
X76211882Y-42993196D01*
X76260384Y-42941350D01*
X76329217Y-42923956D01*
X76363354Y-42930032D01*
X76416637Y-42947344D01*
X76428615Y-42949978D01*
X76612676Y-42971926D01*
X76624925Y-42972183D01*
X76809742Y-42957962D01*
X76821822Y-42955831D01*
X77000345Y-42905986D01*
X77011778Y-42901552D01*
X77135507Y-42839052D01*
X77145791Y-42829407D01*
X77143553Y-42822763D01*
X76369885Y-42049095D01*
X76335859Y-41986783D01*
X76337694Y-41961132D01*
X77004408Y-41961132D01*
X77004539Y-41962965D01*
X77008790Y-41969580D01*
X77496661Y-42457451D01*
X77509041Y-42464211D01*
X77515775Y-42459170D01*
X77562262Y-42377337D01*
X77567256Y-42366121D01*
X77625759Y-42190253D01*
X77628479Y-42178281D01*
X77652039Y-41991784D01*
X77652531Y-41984757D01*
X77652828Y-41963523D01*
X77652533Y-41956494D01*
X77634188Y-41769397D01*
X77631805Y-41757362D01*
X77578233Y-41579924D01*
X77573559Y-41568584D01*
X77518562Y-41465148D01*
X77508702Y-41455067D01*
X77501575Y-41457635D01*
X77012022Y-41947188D01*
X77004408Y-41961132D01*
X76337694Y-41961132D01*
X76340924Y-41915968D01*
X76369885Y-41870905D01*
X77137834Y-41102956D01*
X77144594Y-41090576D01*
X77139935Y-41084353D01*
X77037924Y-41029196D01*
X77026619Y-41024444D01*
X76849554Y-40969633D01*
X76837541Y-40967167D01*
X76772473Y-40960328D01*
X76706816Y-40933314D01*
X76666187Y-40875093D01*
X76663484Y-40804148D01*
X76676525Y-40772018D01*
X76731223Y-40677279D01*
X76731224Y-40677278D01*
X76734527Y-40671556D01*
X76779439Y-40533332D01*
X76791502Y-40496207D01*
X76791502Y-40496205D01*
X76793542Y-40489928D01*
X76794340Y-40490187D01*
X76825498Y-40432477D01*
X76881127Y-40399792D01*
X77006463Y-40364798D01*
X77011967Y-40362018D01*
X77011969Y-40362017D01*
X77177495Y-40278404D01*
X77177497Y-40278403D01*
X77182996Y-40275625D01*
X77338847Y-40153861D01*
X77468078Y-40004145D01*
X77565769Y-39832179D01*
X77628197Y-39644513D01*
X77652985Y-39448295D01*
X77653380Y-39420000D01*
X77634080Y-39223167D01*
X77576916Y-39033831D01*
X77484066Y-38859204D01*
X77366955Y-38715612D01*
X77362960Y-38710713D01*
X77362957Y-38710710D01*
X77359065Y-38705938D01*
X77354316Y-38702009D01*
X77211425Y-38583799D01*
X77211421Y-38583797D01*
X77206675Y-38579870D01*
X77060310Y-38500730D01*
X77009902Y-38450736D01*
X76994930Y-38376725D01*
X77012814Y-38206565D01*
X77013504Y-38200000D01*
X77008774Y-38155000D01*
X76994233Y-38016642D01*
X76994232Y-38016638D01*
X76993542Y-38010072D01*
X76990323Y-38000163D01*
X76980820Y-37970920D01*
X76977024Y-37959235D01*
X76974996Y-37888268D01*
X77011658Y-37827470D01*
X77040044Y-37807835D01*
X77182996Y-37735625D01*
X77338847Y-37613861D01*
X77468078Y-37464145D01*
X77565769Y-37292179D01*
X77628197Y-37104513D01*
X77652985Y-36908295D01*
X77653380Y-36880000D01*
X77634080Y-36683167D01*
X77630575Y-36671556D01*
X77581345Y-36508500D01*
X77576916Y-36493831D01*
X77484066Y-36319204D01*
X77413709Y-36232938D01*
X77362960Y-36170713D01*
X77362957Y-36170710D01*
X77359065Y-36165938D01*
X77354316Y-36162009D01*
X77211425Y-36043799D01*
X77211421Y-36043797D01*
X77206675Y-36039870D01*
X77032701Y-35945802D01*
X76843768Y-35887318D01*
X76837643Y-35886674D01*
X76837642Y-35886674D01*
X76653204Y-35867289D01*
X76653202Y-35867289D01*
X76647075Y-35866645D01*
X76525869Y-35877676D01*
X76486515Y-35881257D01*
X76416861Y-35867512D01*
X76365697Y-35818291D01*
X76349266Y-35749222D01*
X76372784Y-35682234D01*
X76386000Y-35666681D01*
X76673296Y-35379385D01*
X76735608Y-35345359D01*
X76752723Y-35342851D01*
X76759513Y-35342329D01*
X76809830Y-35338457D01*
X76809834Y-35338456D01*
X76815972Y-35337984D01*
X77006463Y-35284798D01*
X77011967Y-35282018D01*
X77011969Y-35282017D01*
X77177495Y-35198404D01*
X77177497Y-35198403D01*
X77182996Y-35195625D01*
X77338847Y-35073861D01*
X77468078Y-34924145D01*
X77565769Y-34752179D01*
X77628197Y-34564513D01*
X77652985Y-34368295D01*
X77653380Y-34340000D01*
X77634080Y-34143167D01*
X77576916Y-33953831D01*
X77484066Y-33779204D01*
X77397255Y-33672763D01*
X77362960Y-33630713D01*
X77362957Y-33630710D01*
X77359065Y-33625938D01*
X77347820Y-33616635D01*
X77211425Y-33503799D01*
X77211421Y-33503797D01*
X77206675Y-33499870D01*
X77032701Y-33405802D01*
X76843768Y-33347318D01*
X76837643Y-33346674D01*
X76837642Y-33346674D01*
X76653204Y-33327289D01*
X76653202Y-33327289D01*
X76647075Y-33326645D01*
X76572092Y-33333469D01*
X76456251Y-33344011D01*
X76456248Y-33344012D01*
X76450112Y-33344570D01*
X76444206Y-33346308D01*
X76444202Y-33346309D01*
X76339076Y-33377249D01*
X76260381Y-33400410D01*
X76254923Y-33403263D01*
X76254919Y-33403265D01*
X76217704Y-33422721D01*
X76085110Y-33492040D01*
X75930975Y-33615968D01*
X75803846Y-33767474D01*
X75800879Y-33772872D01*
X75800875Y-33772877D01*
X75722095Y-33916180D01*
X75708567Y-33940787D01*
X75706706Y-33946654D01*
X75706705Y-33946656D01*
X75650627Y-34123436D01*
X75648765Y-34129306D01*
X75644731Y-34165271D01*
X75637354Y-34231035D01*
X75609883Y-34296502D01*
X75601234Y-34306085D01*
X74542595Y-35364724D01*
X74480283Y-35398750D01*
X74409468Y-35393685D01*
X74352632Y-35351138D01*
X74327821Y-35284618D01*
X74327500Y-35275629D01*
X74327500Y-34606866D01*
X74320745Y-34544684D01*
X74294230Y-34473955D01*
X74272766Y-34416699D01*
X74272764Y-34416696D01*
X74269615Y-34408295D01*
X74266273Y-34403836D01*
X74251470Y-34336152D01*
X74266067Y-34286439D01*
X74269615Y-34281705D01*
X74288611Y-34231035D01*
X74317971Y-34152715D01*
X74320745Y-34145316D01*
X74327500Y-34083134D01*
X74327500Y-33336866D01*
X74320745Y-33274684D01*
X74294793Y-33205458D01*
X74272766Y-33146699D01*
X74272764Y-33146696D01*
X74269615Y-33138295D01*
X74266273Y-33133836D01*
X74251470Y-33066152D01*
X74266067Y-33016439D01*
X74269615Y-33011705D01*
X74274015Y-32999970D01*
X74310796Y-32901855D01*
X74320745Y-32875316D01*
X74327500Y-32813134D01*
X74327500Y-32609002D01*
X74347502Y-32540881D01*
X74401158Y-32494388D01*
X74471432Y-32484284D01*
X74527561Y-32507066D01*
X74643248Y-32591118D01*
X74649276Y-32593802D01*
X74649278Y-32593803D01*
X74811681Y-32666109D01*
X74817712Y-32668794D01*
X74911113Y-32688647D01*
X74998056Y-32707128D01*
X74998061Y-32707128D01*
X75004513Y-32708500D01*
X75195487Y-32708500D01*
X75201939Y-32707128D01*
X75201944Y-32707128D01*
X75288887Y-32688647D01*
X75382288Y-32668794D01*
X75388319Y-32666109D01*
X75550722Y-32593803D01*
X75550724Y-32593802D01*
X75556752Y-32591118D01*
X75711253Y-32478866D01*
X75715668Y-32473963D01*
X75716092Y-32473581D01*
X75780100Y-32442864D01*
X75850553Y-32451629D01*
X75899147Y-32488954D01*
X75907206Y-32499123D01*
X75907211Y-32499128D01*
X75911035Y-32503953D01*
X75915728Y-32507947D01*
X75915729Y-32507948D01*
X76034468Y-32609002D01*
X76061650Y-32632136D01*
X76234294Y-32728624D01*
X76422392Y-32789740D01*
X76618777Y-32813158D01*
X76624912Y-32812686D01*
X76624914Y-32812686D01*
X76809830Y-32798457D01*
X76809834Y-32798456D01*
X76815972Y-32797984D01*
X77006463Y-32744798D01*
X77011967Y-32742018D01*
X77011969Y-32742017D01*
X77177495Y-32658404D01*
X77177497Y-32658403D01*
X77182996Y-32655625D01*
X77338847Y-32533861D01*
X77468078Y-32384145D01*
X77565769Y-32212179D01*
X77628197Y-32024513D01*
X77652985Y-31828295D01*
X77653380Y-31800000D01*
X77634080Y-31603167D01*
X77576916Y-31413831D01*
X77484066Y-31239204D01*
X77393055Y-31127614D01*
X77362960Y-31090713D01*
X77362957Y-31090710D01*
X77359065Y-31085938D01*
X77349436Y-31077972D01*
X77211425Y-30963799D01*
X77211421Y-30963797D01*
X77206675Y-30959870D01*
X77032701Y-30865802D01*
X76969910Y-30846365D01*
X76910750Y-30807114D01*
X76882203Y-30742109D01*
X76893332Y-30671990D01*
X76940603Y-30619019D01*
X77007169Y-30600000D01*
X78366000Y-30600000D01*
X78434121Y-30620002D01*
G37*
G04 #@! TD.AperFunction*
G04 #@! TA.AperFunction,Conductor*
G36*
X69076121Y-44685002D02*
G01*
X69122614Y-44738658D01*
X69134000Y-44791000D01*
X69134000Y-46008884D01*
X69138475Y-46024123D01*
X69139865Y-46025328D01*
X69147548Y-46026999D01*
X69249675Y-46026999D01*
X69258688Y-46026511D01*
X69327791Y-46042801D01*
X69377116Y-46093865D01*
X69391500Y-46152327D01*
X69391500Y-47021295D01*
X69371498Y-47089416D01*
X69354674Y-47110312D01*
X69308071Y-47156997D01*
X69304231Y-47163227D01*
X69304230Y-47163228D01*
X69273000Y-47213893D01*
X69216791Y-47305080D01*
X69162026Y-47470191D01*
X69161326Y-47477027D01*
X69161325Y-47477030D01*
X69160721Y-47482928D01*
X69151500Y-47572928D01*
X69151500Y-48147072D01*
X69151837Y-48150318D01*
X69151837Y-48150322D01*
X69156093Y-48191335D01*
X69162293Y-48251093D01*
X69217346Y-48416107D01*
X69308884Y-48564031D01*
X69314066Y-48569204D01*
X69426816Y-48681758D01*
X69426821Y-48681762D01*
X69431997Y-48686929D01*
X69438227Y-48690769D01*
X69438228Y-48690770D01*
X69539729Y-48753336D01*
X69580080Y-48778209D01*
X69745191Y-48832974D01*
X69752027Y-48833674D01*
X69752030Y-48833675D01*
X69820170Y-48840656D01*
X69885898Y-48867497D01*
X69926680Y-48925612D01*
X69929568Y-48996550D01*
X69893647Y-49057788D01*
X69830319Y-49089885D01*
X69807328Y-49092000D01*
X69776234Y-49092000D01*
X69769718Y-49092337D01*
X69675868Y-49102075D01*
X69662472Y-49104968D01*
X69511047Y-49155488D01*
X69497885Y-49161653D01*
X69362508Y-49245426D01*
X69351110Y-49254460D01*
X69238637Y-49367129D01*
X69229625Y-49378540D01*
X69146088Y-49514063D01*
X69139944Y-49527241D01*
X69089685Y-49678766D01*
X69086818Y-49692140D01*
X69086037Y-49699756D01*
X69059194Y-49765483D01*
X69001078Y-49806263D01*
X68930140Y-49809149D01*
X68868903Y-49773226D01*
X68853549Y-49753212D01*
X68769574Y-49617508D01*
X68760540Y-49606110D01*
X68647871Y-49493637D01*
X68636460Y-49484625D01*
X68500937Y-49401088D01*
X68487760Y-49394944D01*
X68475131Y-49390755D01*
X68416771Y-49350325D01*
X68389534Y-49284761D01*
X68402067Y-49214879D01*
X68413967Y-49195605D01*
X68450615Y-49146705D01*
X68501745Y-49010316D01*
X68508500Y-48948134D01*
X68508500Y-47051866D01*
X68501745Y-46989684D01*
X68450615Y-46853295D01*
X68363261Y-46736739D01*
X68246705Y-46649385D01*
X68110316Y-46598255D01*
X68048134Y-46591500D01*
X67439595Y-46591500D01*
X67371474Y-46571498D01*
X67350500Y-46554595D01*
X67178651Y-46382746D01*
X67171111Y-46374460D01*
X67166999Y-46367981D01*
X67117347Y-46321355D01*
X67114506Y-46318601D01*
X67094769Y-46298864D01*
X67091572Y-46296384D01*
X67082550Y-46288679D01*
X67056099Y-46263840D01*
X67050320Y-46258413D01*
X67043374Y-46254594D01*
X67043371Y-46254592D01*
X67032565Y-46248651D01*
X67016046Y-46237800D01*
X67015582Y-46237440D01*
X67000040Y-46225385D01*
X66980135Y-46216771D01*
X66925562Y-46171360D01*
X66904203Y-46103653D01*
X66922840Y-46035146D01*
X66975556Y-45987590D01*
X67045614Y-45976084D01*
X67074407Y-45983153D01*
X67174684Y-46020745D01*
X67236866Y-46027500D01*
X67983134Y-46027500D01*
X68045316Y-46020745D01*
X68133757Y-45987590D01*
X68173301Y-45972766D01*
X68173304Y-45972764D01*
X68181705Y-45969615D01*
X68186490Y-45966029D01*
X68254374Y-45951182D01*
X68306035Y-45966351D01*
X68316942Y-45972323D01*
X68437394Y-46017478D01*
X68452649Y-46021105D01*
X68503514Y-46026631D01*
X68510328Y-46027000D01*
X68607885Y-46027000D01*
X68623124Y-46022525D01*
X68624329Y-46021135D01*
X68626000Y-46013452D01*
X68626000Y-44791000D01*
X68646002Y-44722879D01*
X68699658Y-44676386D01*
X68752000Y-44665000D01*
X69008000Y-44665000D01*
X69076121Y-44685002D01*
G37*
G04 #@! TD.AperFunction*
G04 #@! TA.AperFunction,Conductor*
G36*
X61638621Y-44573502D02*
G01*
X61685114Y-44627158D01*
X61696500Y-44679500D01*
X61696500Y-45567134D01*
X61703255Y-45629316D01*
X61754385Y-45765705D01*
X61841739Y-45882261D01*
X61958295Y-45969615D01*
X62094684Y-46020745D01*
X62156866Y-46027500D01*
X62339406Y-46027500D01*
X62407527Y-46047502D01*
X62428501Y-46064405D01*
X63743001Y-47378905D01*
X63777027Y-47441217D01*
X63771962Y-47512032D01*
X63729415Y-47568868D01*
X63662895Y-47593679D01*
X63653906Y-47594000D01*
X63528640Y-47594000D01*
X63460519Y-47573998D01*
X63421497Y-47534304D01*
X63376116Y-47460969D01*
X63360524Y-47445404D01*
X63258184Y-47343242D01*
X63258179Y-47343238D01*
X63253003Y-47338071D01*
X63104920Y-47246791D01*
X62939809Y-47192026D01*
X62932973Y-47191326D01*
X62932970Y-47191325D01*
X62881474Y-47186049D01*
X62837072Y-47181500D01*
X62262928Y-47181500D01*
X62259682Y-47181837D01*
X62259678Y-47181837D01*
X62165765Y-47191581D01*
X62165761Y-47191582D01*
X62158907Y-47192293D01*
X62152371Y-47194474D01*
X62152369Y-47194474D01*
X62073338Y-47220841D01*
X61993893Y-47247346D01*
X61845969Y-47338884D01*
X61840796Y-47344066D01*
X61728242Y-47456816D01*
X61728238Y-47456821D01*
X61723071Y-47461997D01*
X61719231Y-47468227D01*
X61719230Y-47468228D01*
X61657195Y-47568868D01*
X61631791Y-47610080D01*
X61577026Y-47775191D01*
X61566500Y-47877928D01*
X61566500Y-48577072D01*
X61566837Y-48580318D01*
X61566837Y-48580322D01*
X61575599Y-48664762D01*
X61577293Y-48681093D01*
X61579474Y-48687629D01*
X61579474Y-48687631D01*
X61617274Y-48800930D01*
X61632346Y-48846107D01*
X61723884Y-48994031D01*
X61729065Y-48999203D01*
X61731139Y-49001273D01*
X61732105Y-49003038D01*
X61733613Y-49004941D01*
X61733287Y-49005199D01*
X61765219Y-49063554D01*
X61760218Y-49134375D01*
X61731292Y-49179470D01*
X61728636Y-49182131D01*
X61719625Y-49193540D01*
X61636088Y-49329063D01*
X61629944Y-49342241D01*
X61579685Y-49493766D01*
X61576819Y-49507132D01*
X61571352Y-49560492D01*
X61544511Y-49626219D01*
X61486396Y-49667001D01*
X61415458Y-49669889D01*
X61354219Y-49633967D01*
X61338864Y-49613952D01*
X61283925Y-49525171D01*
X61283919Y-49525164D01*
X61280071Y-49518945D01*
X61160053Y-49399136D01*
X61153253Y-49394944D01*
X61106475Y-49366110D01*
X61015692Y-49310151D01*
X60977322Y-49297424D01*
X60861262Y-49258928D01*
X60861260Y-49258928D01*
X60854731Y-49256762D01*
X60754572Y-49246500D01*
X60749500Y-49246500D01*
X60749109Y-49246385D01*
X60748144Y-49246336D01*
X60748156Y-49246105D01*
X60681379Y-49226498D01*
X60634886Y-49172842D01*
X60623500Y-49120500D01*
X60623500Y-48734964D01*
X60643502Y-48666843D01*
X60683196Y-48627821D01*
X60694031Y-48621116D01*
X60699204Y-48615934D01*
X60811758Y-48503184D01*
X60811762Y-48503179D01*
X60816929Y-48498003D01*
X60849879Y-48444548D01*
X60904369Y-48356150D01*
X60904370Y-48356148D01*
X60908209Y-48349920D01*
X60962974Y-48184809D01*
X60966508Y-48150322D01*
X60973172Y-48085271D01*
X60973500Y-48082072D01*
X60973500Y-47482928D01*
X60972870Y-47476855D01*
X60963419Y-47385765D01*
X60963418Y-47385761D01*
X60962707Y-47378907D01*
X60948069Y-47335030D01*
X60909972Y-47220841D01*
X60907654Y-47213893D01*
X60816116Y-47065969D01*
X60801988Y-47051866D01*
X60709214Y-46959253D01*
X60675135Y-46896970D01*
X60680138Y-46826150D01*
X60709059Y-46781063D01*
X60811754Y-46678188D01*
X60811758Y-46678183D01*
X60816929Y-46673003D01*
X60820770Y-46666772D01*
X60904369Y-46531150D01*
X60904370Y-46531148D01*
X60908209Y-46524920D01*
X60962974Y-46359809D01*
X60973500Y-46257072D01*
X60973500Y-45657928D01*
X60971115Y-45634943D01*
X60963419Y-45560765D01*
X60963418Y-45560761D01*
X60962707Y-45553907D01*
X60960526Y-45547369D01*
X60914469Y-45409319D01*
X60911885Y-45338369D01*
X60932055Y-45295385D01*
X60934626Y-45291847D01*
X60939040Y-45286944D01*
X60972381Y-45229197D01*
X61031223Y-45127279D01*
X61031224Y-45127278D01*
X61034527Y-45121556D01*
X61093542Y-44939928D01*
X61113504Y-44750000D01*
X61107478Y-44692669D01*
X61120250Y-44622833D01*
X61168751Y-44570986D01*
X61232788Y-44553500D01*
X61570500Y-44553500D01*
X61638621Y-44573502D01*
G37*
G04 #@! TD.AperFunction*
G04 #@! TA.AperFunction,Conductor*
G36*
X72059578Y-30620002D02*
G01*
X72106071Y-30673658D01*
X72116720Y-30739607D01*
X72110500Y-30796866D01*
X72110500Y-31543134D01*
X72117255Y-31605316D01*
X72168385Y-31741705D01*
X72171727Y-31746164D01*
X72186530Y-31813848D01*
X72171933Y-31863561D01*
X72168385Y-31868295D01*
X72117255Y-32004684D01*
X72110500Y-32066866D01*
X72110500Y-32813134D01*
X72117255Y-32875316D01*
X72120027Y-32882712D01*
X72120029Y-32882718D01*
X72128859Y-32906271D01*
X72134042Y-32977078D01*
X72100121Y-33039447D01*
X72037865Y-33073576D01*
X72010877Y-33076500D01*
X70328767Y-33076500D01*
X70317584Y-33075973D01*
X70310091Y-33074298D01*
X70302165Y-33074547D01*
X70302164Y-33074547D01*
X70242014Y-33076438D01*
X70238055Y-33076500D01*
X70210144Y-33076500D01*
X70206210Y-33076997D01*
X70206209Y-33076997D01*
X70206144Y-33077005D01*
X70194307Y-33077938D01*
X70162490Y-33078938D01*
X70158029Y-33079078D01*
X70150110Y-33079327D01*
X70132454Y-33084456D01*
X70130658Y-33084978D01*
X70111306Y-33088986D01*
X70104235Y-33089880D01*
X70091203Y-33091526D01*
X70083834Y-33094443D01*
X70083832Y-33094444D01*
X70050097Y-33107800D01*
X70038869Y-33111645D01*
X69996407Y-33123982D01*
X69989585Y-33128016D01*
X69989579Y-33128019D01*
X69978968Y-33134294D01*
X69961218Y-33142990D01*
X69949756Y-33147528D01*
X69949751Y-33147531D01*
X69942383Y-33150448D01*
X69935968Y-33155109D01*
X69906625Y-33176427D01*
X69896707Y-33182943D01*
X69878019Y-33193995D01*
X69858637Y-33205458D01*
X69844313Y-33219782D01*
X69829281Y-33232621D01*
X69812893Y-33244528D01*
X69794067Y-33267285D01*
X69784712Y-33278593D01*
X69776722Y-33287373D01*
X69549500Y-33514595D01*
X69487188Y-33548621D01*
X69460405Y-33551500D01*
X69404513Y-33551500D01*
X69398061Y-33552872D01*
X69398056Y-33552872D01*
X69311112Y-33571353D01*
X69217712Y-33591206D01*
X69211682Y-33593891D01*
X69211681Y-33593891D01*
X69049278Y-33666197D01*
X69049276Y-33666198D01*
X69043248Y-33668882D01*
X68888747Y-33781134D01*
X68760960Y-33923056D01*
X68757659Y-33928774D01*
X68670512Y-34079717D01*
X68665473Y-34088444D01*
X68606458Y-34270072D01*
X68605768Y-34276633D01*
X68605768Y-34276635D01*
X68598583Y-34345000D01*
X68586496Y-34460000D01*
X68587186Y-34466565D01*
X68600994Y-34597937D01*
X68606458Y-34649928D01*
X68665473Y-34831556D01*
X68760960Y-34996944D01*
X68888747Y-35138866D01*
X68961644Y-35191829D01*
X69020691Y-35234729D01*
X69043248Y-35251118D01*
X69049276Y-35253802D01*
X69049278Y-35253803D01*
X69122621Y-35286457D01*
X69217712Y-35328794D01*
X69311113Y-35348647D01*
X69398056Y-35367128D01*
X69398061Y-35367128D01*
X69404513Y-35368500D01*
X69595487Y-35368500D01*
X69601939Y-35367128D01*
X69601944Y-35367128D01*
X69688887Y-35348647D01*
X69782288Y-35328794D01*
X69877379Y-35286457D01*
X69950722Y-35253803D01*
X69950724Y-35253802D01*
X69956752Y-35251118D01*
X69979310Y-35234729D01*
X70038356Y-35191829D01*
X70111253Y-35138866D01*
X70239040Y-34996944D01*
X70334527Y-34831556D01*
X70393542Y-34649928D01*
X70410907Y-34484706D01*
X70437920Y-34419050D01*
X70447122Y-34408782D01*
X70475499Y-34380405D01*
X70537811Y-34346379D01*
X70564594Y-34343500D01*
X70787157Y-34343500D01*
X70855278Y-34363502D01*
X70901771Y-34417158D01*
X70911875Y-34487432D01*
X70909585Y-34497273D01*
X70909871Y-34497334D01*
X70908497Y-34503795D01*
X70906458Y-34510072D01*
X70905768Y-34516633D01*
X70905768Y-34516635D01*
X70891759Y-34649928D01*
X70886496Y-34700000D01*
X70887186Y-34706565D01*
X70899923Y-34827747D01*
X70906458Y-34889928D01*
X70965473Y-35071556D01*
X70968776Y-35077278D01*
X70968777Y-35077279D01*
X71044322Y-35208127D01*
X71061060Y-35277123D01*
X71037839Y-35344214D01*
X70982032Y-35388101D01*
X70909003Y-35394373D01*
X70905414Y-35393610D01*
X70901943Y-35392872D01*
X70901940Y-35392872D01*
X70895487Y-35391500D01*
X70704513Y-35391500D01*
X70698061Y-35392872D01*
X70698056Y-35392872D01*
X70617139Y-35410072D01*
X70517712Y-35431206D01*
X70511682Y-35433891D01*
X70511681Y-35433891D01*
X70349278Y-35506197D01*
X70349276Y-35506198D01*
X70343248Y-35508882D01*
X70337907Y-35512762D01*
X70337906Y-35512763D01*
X70287843Y-35549136D01*
X70188747Y-35621134D01*
X70060960Y-35763056D01*
X70041821Y-35796206D01*
X69979756Y-35903706D01*
X69965473Y-35928444D01*
X69906458Y-36110072D01*
X69905768Y-36116633D01*
X69905768Y-36116635D01*
X69903118Y-36141852D01*
X69886496Y-36300000D01*
X69887186Y-36306565D01*
X69903955Y-36466109D01*
X69906458Y-36489928D01*
X69965473Y-36671556D01*
X69968776Y-36677278D01*
X69968777Y-36677279D01*
X69977626Y-36692606D01*
X70060960Y-36836944D01*
X70065378Y-36841851D01*
X70065379Y-36841852D01*
X70125205Y-36908295D01*
X70188747Y-36978866D01*
X70283779Y-37047911D01*
X70333743Y-37084212D01*
X70343248Y-37091118D01*
X70349276Y-37093802D01*
X70349278Y-37093803D01*
X70511681Y-37166109D01*
X70517712Y-37168794D01*
X70661111Y-37199275D01*
X70723583Y-37233002D01*
X70757905Y-37295152D01*
X70754746Y-37361457D01*
X70706458Y-37510072D01*
X70705768Y-37516633D01*
X70705768Y-37516635D01*
X70696040Y-37609197D01*
X70686496Y-37700000D01*
X70687186Y-37706565D01*
X70697830Y-37807833D01*
X70706458Y-37889928D01*
X70765473Y-38071556D01*
X70768776Y-38077278D01*
X70768777Y-38077279D01*
X70802686Y-38136010D01*
X70860960Y-38236944D01*
X70988747Y-38378866D01*
X71087667Y-38450736D01*
X71089501Y-38452068D01*
X71143248Y-38491118D01*
X71149276Y-38493802D01*
X71149278Y-38493803D01*
X71266749Y-38546104D01*
X71317712Y-38568794D01*
X71388305Y-38583799D01*
X71498056Y-38607128D01*
X71498061Y-38607128D01*
X71504513Y-38608500D01*
X71695487Y-38608500D01*
X71701939Y-38607128D01*
X71701944Y-38607128D01*
X71811695Y-38583799D01*
X71882288Y-38568794D01*
X71888315Y-38566111D01*
X71888323Y-38566108D01*
X71933252Y-38546104D01*
X72003619Y-38536670D01*
X72067916Y-38566777D01*
X72105729Y-38626866D01*
X72110500Y-38661211D01*
X72110500Y-39163134D01*
X72117255Y-39225316D01*
X72168385Y-39361705D01*
X72171727Y-39366164D01*
X72186530Y-39433848D01*
X72171933Y-39483561D01*
X72168385Y-39488295D01*
X72165236Y-39496696D01*
X72165234Y-39496699D01*
X72160667Y-39508882D01*
X72117255Y-39624684D01*
X72110500Y-39686866D01*
X72110500Y-40433134D01*
X72117255Y-40495316D01*
X72120029Y-40502715D01*
X72151381Y-40586346D01*
X72168385Y-40631705D01*
X72171727Y-40636164D01*
X72186530Y-40703848D01*
X72171933Y-40753561D01*
X72168385Y-40758295D01*
X72117255Y-40894684D01*
X72110500Y-40956866D01*
X72110500Y-41703134D01*
X72117255Y-41765316D01*
X72120029Y-41772715D01*
X72156839Y-41870905D01*
X72168385Y-41901705D01*
X72171727Y-41906164D01*
X72186530Y-41973848D01*
X72171933Y-42023561D01*
X72168385Y-42028295D01*
X72117255Y-42164684D01*
X72110500Y-42226866D01*
X72110500Y-42973134D01*
X72117255Y-43035316D01*
X72168385Y-43171705D01*
X72255739Y-43288261D01*
X72372295Y-43375615D01*
X72508684Y-43426745D01*
X72570866Y-43433500D01*
X72730657Y-43433500D01*
X72781905Y-43444393D01*
X72830677Y-43466108D01*
X72830685Y-43466111D01*
X72836712Y-43468794D01*
X72920694Y-43486645D01*
X73017056Y-43507128D01*
X73017061Y-43507128D01*
X73023513Y-43508500D01*
X73122129Y-43508500D01*
X73190250Y-43528502D01*
X73236743Y-43582158D01*
X73246847Y-43652432D01*
X73217353Y-43717012D01*
X73211224Y-43723595D01*
X72468595Y-44466224D01*
X72406283Y-44500250D01*
X72335468Y-44495185D01*
X72278632Y-44452638D01*
X72253821Y-44386118D01*
X72253500Y-44377129D01*
X72253500Y-44270866D01*
X72246745Y-44208684D01*
X72195615Y-44072295D01*
X72108261Y-43955739D01*
X71991705Y-43868385D01*
X71855316Y-43817255D01*
X71793134Y-43810500D01*
X71046866Y-43810500D01*
X70984684Y-43817255D01*
X70958129Y-43827210D01*
X70856699Y-43865234D01*
X70856696Y-43865236D01*
X70848295Y-43868385D01*
X70843836Y-43871727D01*
X70776152Y-43886530D01*
X70726439Y-43871933D01*
X70721705Y-43868385D01*
X70713304Y-43865236D01*
X70713301Y-43865234D01*
X70611871Y-43827210D01*
X70567006Y-43798323D01*
X70148771Y-43380088D01*
X70136385Y-43365676D01*
X70127852Y-43354081D01*
X70127847Y-43354076D01*
X70123509Y-43348181D01*
X70117931Y-43343442D01*
X70117928Y-43343439D01*
X70083233Y-43313964D01*
X70075717Y-43307034D01*
X70070022Y-43301339D01*
X70054838Y-43289326D01*
X70047750Y-43283718D01*
X70044346Y-43280927D01*
X69994298Y-43238408D01*
X69994296Y-43238407D01*
X69988716Y-43233666D01*
X69982200Y-43230338D01*
X69977151Y-43226971D01*
X69972022Y-43223804D01*
X69966285Y-43219265D01*
X69900126Y-43188344D01*
X69896226Y-43186438D01*
X69831193Y-43153230D01*
X69824085Y-43151491D01*
X69818442Y-43149392D01*
X69812679Y-43147475D01*
X69806051Y-43144377D01*
X69734584Y-43129512D01*
X69730300Y-43128542D01*
X69659391Y-43111191D01*
X69653789Y-43110843D01*
X69653786Y-43110843D01*
X69648237Y-43110499D01*
X69648239Y-43110463D01*
X69644246Y-43110224D01*
X69640054Y-43109850D01*
X69632886Y-43108359D01*
X69569121Y-43110084D01*
X69555480Y-43110453D01*
X69552073Y-43110499D01*
X68262069Y-43110499D01*
X68243119Y-43109066D01*
X68228884Y-43106900D01*
X68228880Y-43106900D01*
X68221650Y-43105800D01*
X68214358Y-43106393D01*
X68214355Y-43106393D01*
X68168981Y-43110084D01*
X68158766Y-43110499D01*
X68150706Y-43110499D01*
X68147072Y-43110923D01*
X68147066Y-43110923D01*
X68134041Y-43112442D01*
X68122479Y-43113790D01*
X68118131Y-43114220D01*
X68096058Y-43116015D01*
X68052661Y-43119545D01*
X68052658Y-43119546D01*
X68045363Y-43120139D01*
X68038399Y-43122395D01*
X68032460Y-43123582D01*
X68026589Y-43124969D01*
X68019318Y-43125817D01*
X68012442Y-43128313D01*
X68012433Y-43128315D01*
X67950701Y-43150724D01*
X67946597Y-43152134D01*
X67877100Y-43174647D01*
X67870845Y-43178443D01*
X67865386Y-43180942D01*
X67859938Y-43183670D01*
X67853062Y-43186166D01*
X67792009Y-43226194D01*
X67788326Y-43228518D01*
X67750918Y-43251218D01*
X67725892Y-43266404D01*
X67717516Y-43273801D01*
X67717492Y-43273774D01*
X67714498Y-43276429D01*
X67711267Y-43279131D01*
X67705147Y-43283143D01*
X67653162Y-43338019D01*
X67651871Y-43339382D01*
X67649493Y-43341824D01*
X67192994Y-43798323D01*
X67148129Y-43827210D01*
X67046699Y-43865234D01*
X67046696Y-43865236D01*
X67038295Y-43868385D01*
X67033836Y-43871727D01*
X66966152Y-43886530D01*
X66916439Y-43871933D01*
X66911705Y-43868385D01*
X66903304Y-43865236D01*
X66903301Y-43865234D01*
X66801871Y-43827210D01*
X66775316Y-43817255D01*
X66713134Y-43810500D01*
X65966866Y-43810500D01*
X65904684Y-43817255D01*
X65878129Y-43827210D01*
X65776699Y-43865234D01*
X65776696Y-43865236D01*
X65768295Y-43868385D01*
X65763836Y-43871727D01*
X65696152Y-43886530D01*
X65646439Y-43871933D01*
X65641705Y-43868385D01*
X65633304Y-43865236D01*
X65633301Y-43865234D01*
X65531871Y-43827210D01*
X65505316Y-43817255D01*
X65443134Y-43810500D01*
X65184595Y-43810500D01*
X65116474Y-43790498D01*
X65095500Y-43773595D01*
X64849652Y-43527747D01*
X64842112Y-43519461D01*
X64838000Y-43512982D01*
X64788348Y-43466356D01*
X64785507Y-43463602D01*
X64765770Y-43443865D01*
X64762573Y-43441385D01*
X64753551Y-43433680D01*
X64721321Y-43403414D01*
X64714375Y-43399595D01*
X64714372Y-43399593D01*
X64703566Y-43393652D01*
X64687047Y-43382801D01*
X64677782Y-43375615D01*
X64671041Y-43370386D01*
X64663772Y-43367241D01*
X64663768Y-43367238D01*
X64630463Y-43352826D01*
X64619813Y-43347609D01*
X64581060Y-43326305D01*
X64561437Y-43321267D01*
X64542734Y-43314863D01*
X64531420Y-43309967D01*
X64531419Y-43309967D01*
X64524145Y-43306819D01*
X64516322Y-43305580D01*
X64516312Y-43305577D01*
X64480476Y-43299901D01*
X64468856Y-43297495D01*
X64433711Y-43288472D01*
X64433710Y-43288472D01*
X64426030Y-43286500D01*
X64405776Y-43286500D01*
X64386065Y-43284949D01*
X64373886Y-43283020D01*
X64366057Y-43281780D01*
X64358165Y-43282526D01*
X64322039Y-43285941D01*
X64310181Y-43286500D01*
X61970379Y-43286500D01*
X61902258Y-43266498D01*
X61855765Y-43212842D01*
X61845661Y-43142568D01*
X61852397Y-43116271D01*
X61879971Y-43042718D01*
X61879973Y-43042712D01*
X61882745Y-43035316D01*
X61889500Y-42973134D01*
X61889500Y-42226866D01*
X61882745Y-42164684D01*
X61831615Y-42028295D01*
X61828273Y-42023836D01*
X61813470Y-41956152D01*
X61828067Y-41906439D01*
X61831615Y-41901705D01*
X61843162Y-41870905D01*
X61879971Y-41772715D01*
X61882745Y-41765316D01*
X61889500Y-41703134D01*
X61889500Y-40956866D01*
X61882745Y-40894684D01*
X61831615Y-40758295D01*
X61828273Y-40753836D01*
X61813470Y-40686152D01*
X61828067Y-40636439D01*
X61831615Y-40631705D01*
X61848620Y-40586346D01*
X61879971Y-40502715D01*
X61882745Y-40495316D01*
X61889500Y-40433134D01*
X61889500Y-39686866D01*
X61882745Y-39624684D01*
X61839333Y-39508882D01*
X61834766Y-39496699D01*
X61834764Y-39496696D01*
X61831615Y-39488295D01*
X61828273Y-39483836D01*
X61813470Y-39416152D01*
X61828067Y-39366439D01*
X61831615Y-39361705D01*
X61882745Y-39225316D01*
X61889500Y-39163134D01*
X61889500Y-38416866D01*
X61882745Y-38354684D01*
X61865024Y-38307414D01*
X61834766Y-38226699D01*
X61834764Y-38226696D01*
X61831615Y-38218295D01*
X61828273Y-38213836D01*
X61813470Y-38146152D01*
X61828067Y-38096439D01*
X61831615Y-38091705D01*
X61837024Y-38077279D01*
X61879971Y-37962715D01*
X61882745Y-37955316D01*
X61889500Y-37893134D01*
X61889500Y-37146866D01*
X61882745Y-37084684D01*
X61861707Y-37028565D01*
X61834766Y-36956699D01*
X61834764Y-36956696D01*
X61831615Y-36948295D01*
X61828029Y-36943510D01*
X61813182Y-36875626D01*
X61828351Y-36823965D01*
X61834323Y-36813058D01*
X61879478Y-36692606D01*
X61883105Y-36677351D01*
X61889000Y-36623089D01*
X61890146Y-36623214D01*
X61912224Y-36560746D01*
X61968315Y-36517223D01*
X62014382Y-36508500D01*
X62195487Y-36508500D01*
X62201939Y-36507128D01*
X62201944Y-36507128D01*
X62313737Y-36483365D01*
X62382288Y-36468794D01*
X62388319Y-36466109D01*
X62550722Y-36393803D01*
X62550724Y-36393802D01*
X62556752Y-36391118D01*
X62711253Y-36278866D01*
X62812934Y-36165938D01*
X62834621Y-36141852D01*
X62834622Y-36141851D01*
X62839040Y-36136944D01*
X62934527Y-35971556D01*
X62993542Y-35789928D01*
X62995766Y-35768774D01*
X63012814Y-35606565D01*
X63013504Y-35600000D01*
X62997958Y-35452089D01*
X62994232Y-35416635D01*
X62994232Y-35416633D01*
X62993542Y-35410072D01*
X62934527Y-35228444D01*
X62839040Y-35063056D01*
X62711253Y-34921134D01*
X62697207Y-34910929D01*
X62653853Y-34854707D01*
X62647778Y-34783971D01*
X62680909Y-34721179D01*
X62742729Y-34686268D01*
X62797464Y-34685746D01*
X62817154Y-34689931D01*
X62898056Y-34707128D01*
X62898061Y-34707128D01*
X62904513Y-34708500D01*
X63095487Y-34708500D01*
X63101939Y-34707128D01*
X63101944Y-34707128D01*
X63188887Y-34688647D01*
X63282288Y-34668794D01*
X63288319Y-34666109D01*
X63450722Y-34593803D01*
X63450724Y-34593802D01*
X63456752Y-34591118D01*
X63485980Y-34569883D01*
X63547733Y-34525016D01*
X63611253Y-34478866D01*
X63666815Y-34417158D01*
X63734621Y-34341852D01*
X63734622Y-34341851D01*
X63739040Y-34336944D01*
X63834527Y-34171556D01*
X63893542Y-33989928D01*
X63899970Y-33928774D01*
X63912814Y-33806565D01*
X63913504Y-33800000D01*
X63899441Y-33666197D01*
X63894232Y-33616635D01*
X63894232Y-33616633D01*
X63893542Y-33610072D01*
X63834527Y-33428444D01*
X63739040Y-33263056D01*
X63722358Y-33244528D01*
X63615675Y-33126045D01*
X63615674Y-33126044D01*
X63611253Y-33121134D01*
X63456752Y-33008882D01*
X63450724Y-33006198D01*
X63450722Y-33006197D01*
X63288319Y-32933891D01*
X63288318Y-32933891D01*
X63282288Y-32931206D01*
X63164979Y-32906271D01*
X63101944Y-32892872D01*
X63101939Y-32892872D01*
X63095487Y-32891500D01*
X62904513Y-32891500D01*
X62898061Y-32892872D01*
X62898056Y-32892872D01*
X62835021Y-32906271D01*
X62717712Y-32931206D01*
X62711682Y-32933891D01*
X62711681Y-32933891D01*
X62549278Y-33006197D01*
X62549276Y-33006198D01*
X62543248Y-33008882D01*
X62537907Y-33012762D01*
X62537906Y-33012763D01*
X62483301Y-33052436D01*
X62409240Y-33076500D01*
X61989123Y-33076500D01*
X61921002Y-33056498D01*
X61874509Y-33002842D01*
X61864405Y-32932568D01*
X61871141Y-32906271D01*
X61879971Y-32882718D01*
X61879973Y-32882712D01*
X61882745Y-32875316D01*
X61889500Y-32813134D01*
X61889500Y-32066866D01*
X61882745Y-32004684D01*
X61831615Y-31868295D01*
X61828273Y-31863836D01*
X61813470Y-31796152D01*
X61828067Y-31746439D01*
X61831615Y-31741705D01*
X61882745Y-31605316D01*
X61889500Y-31543134D01*
X61889500Y-30796866D01*
X61883280Y-30739607D01*
X61895808Y-30669725D01*
X61944129Y-30617709D01*
X62008543Y-30600000D01*
X71991457Y-30600000D01*
X72059578Y-30620002D01*
G37*
G04 #@! TD.AperFunction*
G04 #@! TA.AperFunction,Conductor*
G36*
X59621578Y-30620002D02*
G01*
X59668071Y-30673658D01*
X59678720Y-30739607D01*
X59672500Y-30796866D01*
X59672500Y-31543134D01*
X59679255Y-31605316D01*
X59730385Y-31741705D01*
X59733727Y-31746164D01*
X59748530Y-31813848D01*
X59733933Y-31863561D01*
X59730385Y-31868295D01*
X59679255Y-32004684D01*
X59678402Y-32012536D01*
X59678401Y-32012540D01*
X59675497Y-32039278D01*
X59648255Y-32104840D01*
X59639329Y-32114767D01*
X59448095Y-32306000D01*
X59385783Y-32340025D01*
X59314967Y-32334960D01*
X59258132Y-32292413D01*
X59233321Y-32225892D01*
X59233000Y-32216904D01*
X59233000Y-32046234D01*
X59232663Y-32039718D01*
X59222925Y-31945868D01*
X59220032Y-31932472D01*
X59169512Y-31781047D01*
X59163347Y-31767885D01*
X59079574Y-31632508D01*
X59070540Y-31621110D01*
X58968860Y-31519607D01*
X58934781Y-31457324D01*
X58939784Y-31386504D01*
X58968705Y-31341416D01*
X58989076Y-31321010D01*
X59076929Y-31233003D01*
X59117922Y-31166500D01*
X59164369Y-31091150D01*
X59164370Y-31091148D01*
X59168209Y-31084920D01*
X59222974Y-30919809D01*
X59225875Y-30891500D01*
X59233172Y-30820271D01*
X59233500Y-30817072D01*
X59233500Y-30726000D01*
X59253502Y-30657879D01*
X59307158Y-30611386D01*
X59359500Y-30600000D01*
X59553457Y-30600000D01*
X59621578Y-30620002D01*
G37*
G04 #@! TD.AperFunction*
M02*
