M48
; DRILL file {KiCad (6.0.0)} date Sat Apr 30 09:15:10 2022
; FORMAT={-:-/ absolute / inch / decimal}
; #@! TF.CreationDate,2022-04-30T09:15:10+02:00
; #@! TF.GenerationSoftware,Kicad,Pcbnew,(6.0.0)
; #@! TF.FileFunction,Plated,1,2,PTH
FMAT,2
INCH
; #@! TA.AperFunction,Plated,PTH,ViaDrill
T1C0.0157
%
G90
G05
T1
X2.312Y-1.9752
X2.3307Y-1.6535
X2.3307Y-1.6969
X2.3394Y-1.2362
X2.3453Y-1.3252
X2.3646Y-2.5177
X2.3701Y-1.7618
X2.4157Y-1.7701
X2.4449Y-1.4016
X2.472Y-1.2413
X2.4787Y-2.0496
X2.4803Y-1.3307
X2.5Y-1.5039
X2.5039Y-1.6378
X2.5039Y-1.6811
X2.5118Y-2.5315
X2.5472Y-1.5039
X2.5516Y-2.1705
X2.5693Y-1.9559
X2.5795Y-2.4524
X2.5906Y-1.5039
X2.6063Y-1.8933
X2.6417Y-1.5039
X2.6417Y-2.6654
X2.6693Y-2.6378
X2.6988Y-2.6083
X2.7059Y-1.839
X2.7122Y-1.9248
X2.7311Y-2.3398
X2.7343Y-1.2953
X2.7362Y-1.3567
X2.752Y-1.4724
X2.752Y-1.5118
X2.7874Y-1.4291
X2.8189Y-1.4843
X2.8268Y-1.3661
X2.8406Y-2.0697
X2.8787Y-1.6772
X2.9043Y-1.8059
X2.935Y-1.326
X2.9437Y-1.835
X2.9567Y-1.252
X2.9646Y-1.7008
X2.9882Y-1.5866
X2.9961Y-1.5039
X3.0539Y-2.0862
T0
M30
