G04 #@! TF.GenerationSoftware,KiCad,Pcbnew,(6.0.0)*
G04 #@! TF.CreationDate,2022-04-30T09:15:09+02:00*
G04 #@! TF.ProjectId,parasite,70617261-7369-4746-952e-6b696361645f,1.2.0*
G04 #@! TF.SameCoordinates,Original*
G04 #@! TF.FileFunction,Soldermask,Top*
G04 #@! TF.FilePolarity,Negative*
%FSLAX46Y46*%
G04 Gerber Fmt 4.6, Leading zero omitted, Abs format (unit mm)*
G04 Created by KiCad (PCBNEW (6.0.0)) date 2022-04-30 09:15:09*
%MOMM*%
%LPD*%
G01*
G04 APERTURE LIST*
G04 Aperture macros list*
%AMRoundRect*
0 Rectangle with rounded corners*
0 $1 Rounding radius*
0 $2 $3 $4 $5 $6 $7 $8 $9 X,Y pos of 4 corners*
0 Add a 4 corners polygon primitive as box body*
4,1,4,$2,$3,$4,$5,$6,$7,$8,$9,$2,$3,0*
0 Add four circle primitives for the rounded corners*
1,1,$1+$1,$2,$3*
1,1,$1+$1,$4,$5*
1,1,$1+$1,$6,$7*
1,1,$1+$1,$8,$9*
0 Add four rect primitives between the rounded corners*
20,1,$1+$1,$2,$3,$4,$5,0*
20,1,$1+$1,$4,$5,$6,$7,0*
20,1,$1+$1,$6,$7,$8,$9,0*
20,1,$1+$1,$8,$9,$2,$3,0*%
G04 Aperture macros list end*
%ADD10RoundRect,0.288500X0.237500X-0.300000X0.237500X0.300000X-0.237500X0.300000X-0.237500X-0.300000X0*%
%ADD11RoundRect,0.288500X0.300000X0.237500X-0.300000X0.237500X-0.300000X-0.237500X0.300000X-0.237500X0*%
%ADD12RoundRect,0.288500X-0.237500X0.300000X-0.237500X-0.300000X0.237500X-0.300000X0.237500X0.300000X0*%
%ADD13RoundRect,0.288500X-0.300000X-0.237500X0.300000X-0.237500X0.300000X0.237500X-0.300000X0.237500X0*%
%ADD14RoundRect,0.288500X0.237500X-0.250000X0.237500X0.250000X-0.237500X0.250000X-0.237500X-0.250000X0*%
%ADD15RoundRect,0.288500X0.250000X0.237500X-0.250000X0.237500X-0.250000X-0.237500X0.250000X-0.237500X0*%
%ADD16RoundRect,0.051000X0.400000X-0.450000X0.400000X0.450000X-0.400000X0.450000X-0.400000X-0.450000X0*%
%ADD17RoundRect,0.288500X-0.250000X-0.237500X0.250000X-0.237500X0.250000X0.237500X-0.250000X0.237500X0*%
%ADD18C,1.102000*%
%ADD19RoundRect,0.288500X-0.237500X0.250000X-0.237500X-0.250000X0.237500X-0.250000X0.237500X0.250000X0*%
%ADD20RoundRect,0.051000X-0.400000X0.450000X-0.400000X-0.450000X0.400000X-0.450000X0.400000X0.450000X0*%
%ADD21RoundRect,0.051000X0.500000X0.900000X-0.500000X0.900000X-0.500000X-0.900000X0.500000X-0.900000X0*%
%ADD22RoundRect,0.269750X0.256250X-0.218750X0.256250X0.218750X-0.256250X0.218750X-0.256250X-0.218750X0*%
%ADD23RoundRect,0.138500X0.187500X0.087500X-0.187500X0.087500X-0.187500X-0.087500X0.187500X-0.087500X0*%
%ADD24RoundRect,0.226000X0.175000X0.625000X-0.175000X0.625000X-0.175000X-0.625000X0.175000X-0.625000X0*%
%ADD25RoundRect,0.051000X0.650000X0.850000X-0.650000X0.850000X-0.650000X-0.850000X0.650000X-0.850000X0*%
%ADD26RoundRect,0.051000X0.600000X-0.325000X0.600000X0.325000X-0.600000X0.325000X-0.600000X-0.325000X0*%
%ADD27RoundRect,0.051000X0.325000X0.600000X-0.325000X0.600000X-0.325000X-0.600000X0.325000X-0.600000X0*%
%ADD28RoundRect,0.051000X0.400000X-0.400000X0.400000X0.400000X-0.400000X0.400000X-0.400000X-0.400000X0*%
G04 APERTURE END LIST*
D10*
X63290000Y-55742500D03*
X63290000Y-54017500D03*
D11*
X61222500Y-57280000D03*
X59497500Y-57280000D03*
D10*
X65760000Y-53592500D03*
X65760000Y-51867500D03*
D12*
X62550000Y-48227500D03*
X62550000Y-49952500D03*
D13*
X74887500Y-56630000D03*
X76612500Y-56630000D03*
D10*
X67940000Y-52102500D03*
X67940000Y-50377500D03*
D14*
X70060000Y-51912500D03*
X70060000Y-50087500D03*
D15*
X71832500Y-56820000D03*
X70007500Y-56820000D03*
X61222500Y-60410000D03*
X59397500Y-60410000D03*
D16*
X63150000Y-60900000D03*
X65050000Y-60900000D03*
X64100000Y-58900000D03*
D17*
X65867500Y-56830000D03*
X67692500Y-56830000D03*
X59407500Y-54180000D03*
X61232500Y-54180000D03*
D18*
X76640000Y-36880000D03*
X76640000Y-39420000D03*
X76640000Y-44500000D03*
X76640000Y-41960000D03*
X76640000Y-34340000D03*
D19*
X59990000Y-45957500D03*
X59990000Y-47782500D03*
D20*
X76560000Y-59640000D03*
X74660000Y-59640000D03*
X75610000Y-61640000D03*
D21*
X65000000Y-48000000D03*
X67500000Y-48000000D03*
D22*
X60450000Y-51767500D03*
X60450000Y-50192500D03*
D15*
X71972500Y-47860000D03*
X70147500Y-47860000D03*
D17*
X74707500Y-54090000D03*
X76532500Y-54090000D03*
D16*
X67260000Y-61690000D03*
X69160000Y-61690000D03*
X68210000Y-59690000D03*
D23*
X73725000Y-51100000D03*
X73725000Y-50100000D03*
X71875000Y-50100000D03*
X71875000Y-51100000D03*
D24*
X72800000Y-50600000D03*
D25*
X72510000Y-54460000D03*
X69010000Y-54460000D03*
D18*
X76640000Y-31800000D03*
D26*
X60781000Y-31170000D03*
X60781000Y-32440000D03*
X60781000Y-33710000D03*
X60781000Y-34980000D03*
X60781000Y-36250000D03*
X60781000Y-37520000D03*
X60781000Y-38790000D03*
X60781000Y-40060000D03*
X60781000Y-41330000D03*
X60781000Y-42600000D03*
D27*
X62530000Y-44919000D03*
X63800000Y-44919000D03*
X65070000Y-44919000D03*
X66340000Y-44919000D03*
X67610000Y-44919000D03*
X68880000Y-44919000D03*
X70150000Y-44919000D03*
X71420000Y-44919000D03*
D26*
X73219000Y-42600000D03*
X73219000Y-41330000D03*
X73219000Y-40060000D03*
X73219000Y-38790000D03*
X73219000Y-37520000D03*
X73219000Y-36250000D03*
X73219000Y-34980000D03*
X73219000Y-33710000D03*
X73219000Y-32440000D03*
X73219000Y-31170000D03*
D18*
X59260000Y-28540000D03*
D14*
X58250000Y-32342500D03*
X58250000Y-30517500D03*
D28*
X57930000Y-35507500D03*
X57930000Y-34007500D03*
G36*
X72400222Y-50862286D02*
G01*
X72401000Y-50863869D01*
X72401000Y-51224801D01*
X72414899Y-51294677D01*
X72414256Y-51296571D01*
X72412294Y-51296961D01*
X72411142Y-51295948D01*
X72400096Y-51273450D01*
X72399870Y-51273561D01*
X72397875Y-51273427D01*
X72397172Y-51272602D01*
X72380029Y-51235356D01*
X72321655Y-51198085D01*
X72252396Y-51198289D01*
X72194046Y-51236033D01*
X72192871Y-51237578D01*
X72191026Y-51238351D01*
X72189434Y-51237140D01*
X72189317Y-51235977D01*
X72199000Y-51187301D01*
X72199000Y-51012699D01*
X72188572Y-50960277D01*
X72174945Y-50939883D01*
X72174814Y-50937887D01*
X72176477Y-50936776D01*
X72177891Y-50937237D01*
X72224948Y-50976563D01*
X72293664Y-50985194D01*
X72356139Y-50955303D01*
X72392622Y-50896241D01*
X72397018Y-50863602D01*
X72398240Y-50862019D01*
X72400222Y-50862286D01*
G37*
G36*
X73202919Y-50863299D02*
G01*
X73222596Y-50930314D01*
X73274939Y-50975669D01*
X73343492Y-50985526D01*
X73406637Y-50956688D01*
X73416526Y-50945479D01*
X73418422Y-50944842D01*
X73419922Y-50946165D01*
X73419689Y-50947913D01*
X73411428Y-50960277D01*
X73401000Y-51012699D01*
X73401000Y-51187301D01*
X73411428Y-51239723D01*
X73411745Y-51240198D01*
X73411876Y-51242194D01*
X73410212Y-51243305D01*
X73408799Y-51242844D01*
X73361746Y-51203521D01*
X73293030Y-51194890D01*
X73230555Y-51224780D01*
X73201512Y-51271796D01*
X73200280Y-51272459D01*
X73197208Y-51278744D01*
X73197113Y-51278917D01*
X73194032Y-51283905D01*
X73193594Y-51286000D01*
X73193433Y-51286468D01*
X73188901Y-51295740D01*
X73187242Y-51296857D01*
X73185445Y-51295979D01*
X73185142Y-51294472D01*
X73199000Y-51224801D01*
X73199000Y-50863862D01*
X73200000Y-50862130D01*
X73202000Y-50862130D01*
X73202919Y-50863299D01*
G37*
G36*
X73188858Y-49904052D02*
G01*
X73199904Y-49926550D01*
X73200130Y-49926439D01*
X73202125Y-49926573D01*
X73202828Y-49927398D01*
X73219971Y-49964644D01*
X73278345Y-50001915D01*
X73347604Y-50001711D01*
X73405954Y-49963967D01*
X73407129Y-49962422D01*
X73408974Y-49961649D01*
X73410566Y-49962860D01*
X73410683Y-49964023D01*
X73401000Y-50012699D01*
X73401000Y-50187301D01*
X73411428Y-50239723D01*
X73425055Y-50260117D01*
X73425186Y-50262113D01*
X73423523Y-50263224D01*
X73422109Y-50262763D01*
X73375052Y-50223437D01*
X73306336Y-50214806D01*
X73243861Y-50244697D01*
X73207378Y-50303759D01*
X73202982Y-50336398D01*
X73201760Y-50337981D01*
X73199778Y-50337714D01*
X73199000Y-50336131D01*
X73199000Y-49975199D01*
X73185101Y-49905323D01*
X73185744Y-49903429D01*
X73187706Y-49903039D01*
X73188858Y-49904052D01*
G37*
G36*
X72414555Y-49904021D02*
G01*
X72414858Y-49905528D01*
X72401000Y-49975199D01*
X72401000Y-50336138D01*
X72400000Y-50337870D01*
X72398000Y-50337870D01*
X72397081Y-50336701D01*
X72377404Y-50269686D01*
X72325061Y-50224331D01*
X72256508Y-50214474D01*
X72193363Y-50243312D01*
X72183474Y-50254521D01*
X72181578Y-50255158D01*
X72180078Y-50253835D01*
X72180311Y-50252087D01*
X72188572Y-50239723D01*
X72199000Y-50187301D01*
X72199000Y-50012699D01*
X72188572Y-49960277D01*
X72188255Y-49959802D01*
X72188124Y-49957806D01*
X72189788Y-49956695D01*
X72191201Y-49957156D01*
X72238254Y-49996479D01*
X72306970Y-50005110D01*
X72369445Y-49975220D01*
X72398488Y-49928204D01*
X72399720Y-49927541D01*
X72402792Y-49921256D01*
X72402887Y-49921083D01*
X72405968Y-49916095D01*
X72406406Y-49914000D01*
X72406567Y-49913532D01*
X72411099Y-49904260D01*
X72412758Y-49903143D01*
X72414555Y-49904021D01*
G37*
M02*
